<?xml version="1.0" encoding="UTF-8" standalone="no"?>
<!DOCTYPE svg PUBLIC "-//W3C//DTD SVG 1.1//EN" "http://www.w3.org/Graphics/SVG/1.1/DTD/svg11.dtd">
<svg width="100%" height="100%" viewBox="0 0 71 70" version="1.1" xmlns="http://www.w3.org/2000/svg" xmlns:xlink="http://www.w3.org/1999/xlink" xml:space="preserve" xmlns:serif="http://www.serif.com/" style="fill-rule:evenodd;clip-rule:evenodd;stroke-linejoin:round;stroke-miterlimit:2;">
    <g transform="matrix(1,0,0,1,-392.013,-130.283)">
        <g transform="matrix(4.16667,0,0,4.16667,0,0)">
            <path d="M106.476,45.965C106.374,45.863 106.292,45.742 106.237,45.609C106.183,45.48 106.154,45.337 106.154,45.186C106.154,44.952 106.059,44.739 105.905,44.585C105.751,44.432 105.538,44.336 105.304,44.336C105.069,44.336 104.857,44.432 104.703,44.585C104.549,44.739 104.454,44.952 104.454,45.186C104.454,45.564 104.529,45.926 104.667,46.257C104.809,46.601 105.017,46.91 105.274,47.167L105.275,47.167C105.533,47.425 105.842,47.633 106.185,47.775C106.516,47.912 106.877,47.988 107.255,47.988C108.028,47.988 108.729,47.674 109.236,47.167L109.236,47.166C109.494,46.909 109.701,46.6 109.844,46.257C109.981,45.926 110.056,45.564 110.056,45.186C110.056,44.413 109.743,43.712 109.236,43.206C108.979,42.948 108.67,42.74 108.325,42.598C107.995,42.461 107.633,42.385 107.255,42.385C107.23,42.385 107.204,42.386 107.18,42.388L100.584,42.388L100.584,42.387C100.351,42.387 100.139,42.482 99.985,42.636L99.984,42.637C99.831,42.79 99.736,43.002 99.736,43.235C99.736,43.468 99.831,43.68 99.984,43.834L99.984,43.835C100.138,43.988 100.35,44.083 100.584,44.083L100.584,44.082L107.18,44.082C107.204,44.084 107.23,44.085 107.255,44.085C107.559,44.085 107.835,44.209 108.034,44.408C108.136,44.51 108.218,44.631 108.273,44.764C108.327,44.893 108.356,45.036 108.356,45.186C108.356,45.337 108.327,45.48 108.273,45.609C108.218,45.743 108.136,45.864 108.034,45.966L108.034,45.965C107.931,46.068 107.81,46.15 107.677,46.205C107.548,46.258 107.406,46.288 107.255,46.288C107.104,46.288 106.962,46.258 106.834,46.205C106.7,46.149 106.578,46.067 106.476,45.965Z" style="fill:white;"/>
        </g>
        <g transform="matrix(4.16667,0,0,4.16667,0,0)">
            <path d="M96.906,41.317L107.64,41.317C108.572,41.317 109.416,40.939 110.026,40.329C110.637,39.718 111.015,38.874 111.015,37.942C111.015,37.01 110.637,36.167 110.026,35.556C109.416,34.946 108.572,34.568 107.64,34.568C107.155,34.568 106.684,34.671 106.255,34.864C105.822,35.059 105.431,35.343 105.112,35.703C104.891,35.954 104.509,35.977 104.258,35.756C104.008,35.534 103.985,35.152 104.206,34.902C104.643,34.409 105.173,34.022 105.757,33.759C105.852,33.716 105.949,33.676 106.047,33.64C105.702,33.012 105.219,32.483 104.645,32.084C103.896,31.564 102.99,31.268 102.033,31.268C100.901,31.268 99.853,31.681 99.048,32.373C98.243,33.064 97.678,34.035 97.507,35.153C97.481,35.327 97.384,35.473 97.249,35.564L97.246,35.566L97.244,35.568L97.234,35.574L97.232,35.576L97.219,35.583L97.209,35.59L97.194,35.598C97.108,35.644 97.011,35.67 96.906,35.67C96.127,35.67 95.421,35.986 94.91,36.497C94.399,37.008 94.083,37.714 94.083,38.494C94.083,39.273 94.399,39.979 94.91,40.49C95.421,41.001 96.127,41.317 96.906,41.317Z" style="fill:white;"/>
        </g>
    </g>
</svg>
