<?xml version="1.0" encoding="UTF-8" standalone="no"?>
<!DOCTYPE svg PUBLIC "-//W3C//DTD SVG 1.1//EN" "http://www.w3.org/Graphics/SVG/1.1/DTD/svg11.dtd">
<svg width="100%" height="100%" viewBox="0 0 72 43" version="1.1" xmlns="http://www.w3.org/2000/svg" xmlns:xlink="http://www.w3.org/1999/xlink" xml:space="preserve" xmlns:serif="http://www.serif.com/" style="fill-rule:evenodd;clip-rule:evenodd;stroke-linejoin:round;stroke-miterlimit:2;">
    <g transform="matrix(1,0,0,1,-130.562,-13.2917)">
        <g transform="matrix(4.16667,0,0,4.16667,0,0)">
            <path d="M34.237,13.396L44.968,13.396C45.922,13.396 46.785,13.009 47.41,12.384C48.035,11.76 48.422,10.896 48.422,9.943C48.422,8.989 48.035,8.125 47.41,7.501C46.785,6.876 45.922,6.489 44.968,6.489C44.473,6.489 43.99,6.595 43.551,6.793C43.108,6.992 42.708,7.283 42.382,7.651C42.189,7.869 41.857,7.889 41.64,7.697C41.422,7.504 41.402,7.172 41.594,6.955C42.023,6.47 42.544,6.09 43.118,5.832C43.239,5.777 43.363,5.728 43.489,5.684C43.135,5.01 42.627,4.443 42.019,4.02C41.257,3.491 40.336,3.19 39.362,3.19C38.211,3.19 37.146,3.61 36.327,4.313C35.508,5.016 34.933,6.005 34.759,7.142C34.737,7.294 34.651,7.421 34.532,7.501L34.531,7.502L34.521,7.508L34.511,7.515L34.487,7.528L34.486,7.529L34.466,7.539L34.465,7.54C34.396,7.573 34.319,7.591 34.237,7.591C33.436,7.591 32.71,7.916 32.185,8.441C31.66,8.966 31.335,9.692 31.335,10.494C31.335,11.295 31.66,12.021 32.185,12.546C32.71,13.071 33.436,13.396 34.237,13.396Z" style="fill:white;"/>
        </g>
    </g>
</svg>
