<?xml version="1.0" encoding="UTF-8" standalone="no"?>
<!DOCTYPE svg PUBLIC "-//W3C//DTD SVG 1.1//EN" "http://www.w3.org/Graphics/SVG/1.1/DTD/svg11.dtd">
<svg width="100%" height="100%" viewBox="0 0 72 72" version="1.1" xmlns="http://www.w3.org/2000/svg" xmlns:xlink="http://www.w3.org/1999/xlink" xml:space="preserve" xmlns:serif="http://www.serif.com/" style="fill-rule:evenodd;clip-rule:evenodd;stroke-linejoin:round;stroke-miterlimit:2;">
    <g transform="matrix(1,0,0,1,-391.687,-259.904)">
        <g transform="matrix(4.16667,0,0,4.16667,0,0)">
            <path d="M103.36,75.332C103.359,75.042 103.123,74.808 102.832,74.809C102.542,74.81 102.308,75.046 102.309,75.336L102.315,76.87C102.316,77.16 102.553,77.395 102.843,77.394C103.133,77.393 103.368,77.156 103.367,76.866L103.36,75.332Z" style="fill:white;"/>
        </g>
        <g transform="matrix(4.16667,0,0,4.16667,0,0)">
            <path d="M98.476,73.068C98.185,73.068 97.95,73.304 97.95,73.594L97.944,76.868C97.944,77.158 98.179,77.394 98.469,77.394C98.759,77.394 98.995,77.158 98.995,76.868L99.001,73.594C99.001,73.304 98.766,73.068 98.476,73.068Z" style="fill:white;"/>
        </g>
        <g transform="matrix(4.16667,0,0,4.16667,0,0)">
            <path d="M107.147,75.336L107.147,75.305L107.146,75.296L107.146,75.292L107.145,75.283L107.144,75.279L107.144,75.276L107.143,75.265L107.142,75.256L107.141,75.252L107.14,75.243L107.137,75.23C107.135,75.222 107.134,75.215 107.132,75.207L107.131,75.205L107.128,75.192L107.124,75.18L107.123,75.176L107.12,75.168L107.12,75.167L107.116,75.156L107.115,75.152L107.112,75.144L107.11,75.14L107.107,75.132C107.104,75.124 107.1,75.117 107.097,75.109L107.096,75.108L107.095,75.105L107.091,75.097C107.083,75.082 107.075,75.067 107.066,75.053C107.059,75.042 107.052,75.032 107.044,75.021L107.042,75.018L107.036,75.011L107.034,75.008L107.021,74.992L107.014,74.985L107.01,74.979L106.986,74.955L106.983,74.953L106.974,74.944L106.971,74.942L106.964,74.936L106.958,74.93L106.955,74.928L106.948,74.922L106.945,74.92L106.938,74.914L106.935,74.912C106.924,74.904 106.914,74.897 106.903,74.89C106.889,74.881 106.874,74.873 106.859,74.865L106.852,74.861L106.848,74.86L106.847,74.859C106.839,74.856 106.832,74.852 106.824,74.849L106.816,74.846L106.813,74.844L106.789,74.836L106.788,74.836L106.78,74.833L106.773,74.831L106.764,74.828L106.751,74.825L106.749,74.824C106.741,74.822 106.734,74.821 106.726,74.819L106.713,74.816L106.704,74.815L106.7,74.814L106.691,74.813L106.678,74.812L106.673,74.811L106.664,74.81L106.66,74.81L106.651,74.809L106.593,74.809L106.583,74.81L106.579,74.81L106.57,74.811L106.566,74.812L106.553,74.813L106.544,74.814L106.54,74.815L106.531,74.816L106.518,74.819C106.51,74.821 106.502,74.822 106.494,74.824L106.492,74.825L106.48,74.828L106.479,74.828L106.443,74.84L106.439,74.841L106.431,74.844L106.427,74.846L106.419,74.849C106.411,74.852 106.404,74.856 106.397,74.859L106.396,74.86L106.392,74.861L106.384,74.865C106.369,74.873 106.354,74.881 106.34,74.89C106.329,74.897 106.319,74.904 106.309,74.912L106.306,74.914L106.299,74.92L106.296,74.922L106.289,74.928L106.286,74.93L106.272,74.942L106.261,74.953L106.258,74.955L106.231,74.982L106.229,74.985L106.223,74.992L106.217,74.998L106.215,75.002L106.209,75.008L106.202,75.018L106.199,75.021C106.192,75.032 106.185,75.042 106.178,75.053C106.169,75.067 106.16,75.082 106.153,75.097L106.149,75.105L106.147,75.108L106.147,75.109C106.143,75.117 106.14,75.124 106.137,75.132L106.133,75.14L106.132,75.144L106.129,75.152L106.127,75.156L106.123,75.167L106.123,75.168L106.12,75.176L106.118,75.183L106.116,75.192L106.115,75.192L106.112,75.205L106.112,75.207C106.11,75.215 106.108,75.222 106.106,75.23L106.105,75.239L106.102,75.252L106.102,75.256L106.101,75.265L106.101,75.266L106.099,75.276L106.099,75.283L106.098,75.292L106.097,75.296L106.097,75.309L106.096,75.319L106.096,75.336L106.09,76.866C106.089,77.156 106.323,77.393 106.613,77.394L106.63,77.394C106.921,77.393 107.155,77.156 107.154,76.866L107.147,75.336Z" style="fill:white;"/>
        </g>
        <g transform="matrix(4.16667,0,0,4.16667,0,0)">
            <path d="M107.147,78.253L107.147,78.226L107.146,78.224L107.146,78.212L107.145,78.207L107.144,78.199L107.144,78.194L107.143,78.193L107.142,78.181L107.141,78.173L107.14,78.168L107.139,78.165L107.138,78.155L107.136,78.147L107.135,78.142L107.13,78.122L107.13,78.121L107.127,78.113L107.125,78.105L107.122,78.097L107.121,78.092L107.118,78.084L107.117,78.08L107.114,78.072L107.114,78.071L107.11,78.063L107.108,78.056L107.103,78.045L107.103,78.044L107.097,78.033L107.094,78.025L107.092,78.021L107.088,78.014L107.086,78.01L107.086,78.009L107.076,77.992L107.073,77.988L107.067,77.977L107.06,77.966L107.048,77.949L107.041,77.94L107.04,77.939L107.033,77.929L107.026,77.92L107.016,77.91L107.014,77.907L107.005,77.898L107.005,77.897L106.996,77.888L106.991,77.882L106.987,77.879L106.974,77.866L106.972,77.865L106.969,77.862L106.959,77.854L106.95,77.846L106.943,77.841L106.94,77.838L106.939,77.838L106.93,77.831L106.929,77.831L106.919,77.823L106.912,77.819L106.904,77.813L106.902,77.812L106.898,77.809L106.887,77.803L106.869,77.793L106.853,77.785L106.846,77.781L106.842,77.779L106.834,77.776L106.824,77.772L106.823,77.771L106.816,77.768L106.807,77.765L106.806,77.764L106.799,77.762L106.786,77.757L106.774,77.754L106.77,77.752L106.758,77.749L106.757,77.749L106.745,77.746L106.724,77.741L106.714,77.739L106.711,77.739L106.706,77.738L106.698,77.737L106.697,77.736L106.685,77.735L106.68,77.734L106.671,77.733L106.665,77.733L106.653,77.732L106.645,77.732L106.639,77.731L106.604,77.731L106.599,77.732L106.589,77.732L106.577,77.733L106.572,77.733L106.564,77.734L106.559,77.735L106.547,77.736L106.546,77.737L106.538,77.738L106.533,77.739L106.529,77.739L106.499,77.746L106.487,77.749L106.486,77.749L106.474,77.752L106.469,77.754L106.462,77.756L106.457,77.757L106.449,77.76L106.445,77.762L106.437,77.764L106.436,77.765L106.427,77.768L106.419,77.772L106.41,77.776L106.409,77.776L106.398,77.781L106.386,77.787L106.375,77.793L106.374,77.793L106.357,77.803L106.353,77.805L106.346,77.809L106.342,77.812L106.339,77.813L106.331,77.819L106.324,77.823L106.321,77.826L106.314,77.831L106.305,77.838L106.304,77.838L106.301,77.841L106.294,77.846L106.285,77.853L106.281,77.857L106.271,77.865L106.262,77.873L106.238,77.897L106.238,77.898L106.231,77.905L106.23,77.907L106.227,77.91L106.222,77.916L106.218,77.92L106.211,77.929L106.206,77.936L106.203,77.939L106.203,77.94L106.196,77.949L106.195,77.949L106.191,77.956L106.188,77.959L106.184,77.966L106.178,77.974L106.177,77.977L106.174,77.981L106.17,77.988L106.168,77.992L106.164,77.999L106.158,78.009L106.158,78.01L106.156,78.014L106.152,78.021L106.144,78.037L106.141,78.044L106.141,78.045L106.134,78.06L106.13,78.071L106.129,78.072L106.127,78.08L106.125,78.084L106.122,78.092L106.121,78.097L106.119,78.105L106.117,78.109L106.114,78.121L106.114,78.122L106.109,78.142L106.108,78.147L106.106,78.155L106.104,78.165L106.104,78.168L106.103,78.173L106.102,78.181L106.101,78.182L106.1,78.194L106.099,78.199L106.098,78.207L106.098,78.213L106.097,78.224L106.097,78.234L106.096,78.239L106.096,78.253L106.09,79.02C106.087,79.31 106.321,79.547 106.611,79.549L106.632,79.549C106.923,79.547 107.156,79.31 107.154,79.02L107.147,78.253Z" style="fill:white;"/>
        </g>
        <g transform="matrix(4.16667,0,0,4.16667,0,0)">
            <path d="M96.063,73.594L96.056,78.831C96.056,79.122 96.292,79.357 96.582,79.357C96.872,79.357 97.108,79.122 97.108,78.831L97.114,73.594C97.114,73.304 96.879,73.068 96.589,73.068C96.298,73.068 96.063,73.304 96.063,73.594Z" style="fill:white;"/>
        </g>
        <g transform="matrix(4.16667,0,0,4.16667,0,0)">
            <path d="M102.83,77.731C102.54,77.733 102.307,77.971 102.309,78.261L102.315,79.028C102.318,79.318 102.555,79.552 102.845,79.549C103.135,79.547 103.369,79.31 103.367,79.02L103.36,78.253C103.358,77.962 103.121,77.729 102.83,77.731Z" style="fill:white;"/>
        </g>
        <g transform="matrix(4.16667,0,0,4.16667,0,0)">
            <path d="M98.48,77.731C98.19,77.729 97.952,77.962 97.95,78.253L97.944,79.02C97.941,79.31 98.175,79.547 98.465,79.549C98.755,79.552 98.993,79.318 98.995,79.028L99.001,78.261C99.004,77.971 98.77,77.733 98.48,77.731Z" style="fill:white;"/>
        </g>
        <g transform="matrix(4.16667,0,0,4.16667,0,0)">
            <path d="M104.728,79.357C105.018,79.357 105.254,79.122 105.254,78.831L105.26,73.594C105.26,73.304 105.025,73.068 104.735,73.068L104.722,73.068C104.431,73.068 104.196,73.304 104.196,73.594L104.202,78.831C104.202,79.122 104.438,79.357 104.728,79.357Z" style="fill:white;"/>
        </g>
        <g transform="matrix(4.16667,0,0,4.16667,0,0)">
            <g transform="matrix(1,0,0,1,-0.131384,-3.1762e-06)">
                <path d="M100.21,77.446L100.204,78.829C100.203,79.119 100.437,79.356 100.727,79.357C101.018,79.358 101.254,79.123 101.255,78.833L101.262,77.45C101.263,77.16 101.028,76.923 100.738,76.922C100.448,76.921 100.211,77.156 100.21,77.446Z" style="fill:white;"/>
            </g>
        </g>
        <g transform="matrix(4.16667,0,0,4.16667,0,0)">
            <path d="M108.509,73.068C108.219,73.068 107.983,73.304 107.983,73.594L107.99,78.831C107.99,79.122 108.225,79.357 108.515,79.357C108.806,79.357 109.041,79.122 109.041,78.831L109.034,73.594C109.034,73.304 108.799,73.068 108.509,73.068Z" style="fill:white;"/>
        </g>
        <g transform="matrix(4.16667,0,0,4.16667,0,0)">
            <path d="M96.907,72.583L99.79,72.583C99.775,72.415 99.804,72.241 99.882,72.079L101.482,68.769C101.636,68.424 101.98,68.199 102.362,68.199L104.224,68.199C104.394,68.201 104.561,68.247 104.707,68.334C105.164,68.604 105.316,69.199 105.045,69.655L104.58,70.439C104.728,70.476 104.866,70.547 104.982,70.649C105.381,70.998 105.421,71.61 105.072,72.009L104.57,72.583L107.639,72.583C108.593,72.583 109.456,72.196 110.081,71.571C110.706,70.947 111.093,70.083 111.093,69.129C111.093,68.176 110.706,67.312 110.081,66.687C109.456,66.063 108.593,65.676 107.639,65.676C107.143,65.676 106.661,65.782 106.221,65.979C105.779,66.179 105.379,66.47 105.052,66.838C104.86,67.056 104.528,67.076 104.31,66.884C104.093,66.691 104.073,66.359 104.265,66.142C104.694,65.657 105.215,65.277 105.788,65.019C105.91,64.964 106.034,64.915 106.159,64.871C105.806,64.197 105.298,63.629 104.69,63.207C103.928,62.678 103.007,62.377 102.033,62.377C100.882,62.377 99.817,62.796 98.997,63.5C98.178,64.203 97.603,65.192 97.43,66.329C97.405,66.488 97.31,66.625 97.177,66.704C97.098,66.751 97.006,66.778 96.907,66.778C96.106,66.778 95.38,67.103 94.855,67.628C94.33,68.153 94.005,68.879 94.005,69.68C94.005,70.482 94.33,71.208 94.855,71.733C95.38,72.258 96.106,72.583 96.907,72.583Z" style="fill:white;"/>
        </g>
        <g transform="matrix(4.16667,0,0,4.16667,0,0)">
            <path d="M104.445,71.262C104.417,71.237 104.382,71.225 104.347,71.225L103.167,71.225L104.345,69.239C104.386,69.169 104.363,69.077 104.292,69.035C104.268,69.021 104.242,69.014 104.216,69.014L102.362,69.014C102.299,69.014 102.245,69.053 102.223,69.109L100.616,72.433C100.581,72.508 100.612,72.597 100.686,72.632C100.707,72.642 100.729,72.647 100.75,72.647L100.75,72.648L101.713,72.648L100.649,75.386C100.619,75.462 100.658,75.549 100.734,75.578C100.795,75.602 100.862,75.583 100.901,75.536L104.459,71.472C104.514,71.41 104.507,71.316 104.445,71.262Z" style="fill:white;"/>
        </g>
    </g>
</svg>
