<?xml version="1.0" encoding="UTF-8" standalone="no"?>
<!DOCTYPE svg PUBLIC "-//W3C//DTD SVG 1.1//EN" "http://www.w3.org/Graphics/SVG/1.1/DTD/svg11.dtd">
<svg width="100%" height="100%" viewBox="0 0 38 53" version="1.1" xmlns="http://www.w3.org/2000/svg" xmlns:xlink="http://www.w3.org/1999/xlink" xml:space="preserve" xmlns:serif="http://www.serif.com/" style="fill-rule:evenodd;clip-rule:evenodd;stroke-linejoin:round;stroke-miterlimit:2;">
    <g transform="matrix(1,0,0,1,-277.754,-8.07233)">
        <g transform="matrix(4.16667,0,0,4.16667,0,0)">
            <path d="M72.581,12.489C72.986,12.258 73.321,11.928 73.56,11.539C73.799,11.15 73.942,10.703 73.966,10.237C73.98,9.935 74.237,9.701 74.54,9.715C74.842,9.729 75.076,9.986 75.062,10.289C75.029,10.948 74.83,11.574 74.497,12.115C74.164,12.656 73.695,13.116 73.122,13.443C72.859,13.593 72.524,13.501 72.374,13.237C72.225,12.974 72.317,12.639 72.581,12.489ZM71.213,14.648C72.47,14.648 73.609,14.139 74.432,13.315C75.256,12.491 75.765,11.353 75.765,10.096C75.765,8.3 73.356,4.745 71.748,2.373C71.393,1.784 71.037,1.802 70.682,2.368C69.075,4.741 66.661,8.302 66.661,10.096C66.661,11.353 67.171,12.491 67.995,13.315C68.818,14.139 69.956,14.648 71.213,14.648Z" style="fill:white;"/>
        </g>
    </g>
</svg>
