<?xml version="1.0" encoding="UTF-8" standalone="no"?>
<!DOCTYPE svg PUBLIC "-//W3C//DTD SVG 1.1//EN" "http://www.w3.org/Graphics/SVG/1.1/DTD/svg11.dtd">
<svg width="100%" height="100%" viewBox="0 0 70 68" version="1.1" xmlns="http://www.w3.org/2000/svg" xmlns:xlink="http://www.w3.org/1999/xlink" xml:space="preserve" xmlns:serif="http://www.serif.com/" style="fill-rule:evenodd;clip-rule:evenodd;stroke-linejoin:round;stroke-miterlimit:2;">
    <g transform="matrix(1,0,0,1,-262,-131.333)">
        <g transform="matrix(4.16667,0,0,4.16667,0,0)">
            <path d="M66.423,42.801C66.312,42.73 66.164,42.763 66.093,42.875C66.002,43.019 65.906,43.161 65.796,43.323C65.273,44.095 64.487,45.254 64.487,45.928C64.487,46.427 64.69,46.879 65.017,47.206C65.344,47.534 65.796,47.736 66.295,47.736C66.786,47.736 67.232,47.539 67.559,47.22C67.564,47.216 67.569,47.211 67.573,47.206C67.9,46.879 68.103,46.427 68.103,45.928C68.103,45.254 67.319,44.097 66.796,43.325C66.687,43.164 66.59,43.021 66.499,42.878C66.481,42.848 66.455,42.821 66.423,42.801Z" style="fill:white;"/>
        </g>
        <g transform="matrix(4.16667,0,0,4.16667,0,0)">
            <path d="M74.854,47.206C75.181,47.533 75.633,47.736 76.132,47.736C76.629,47.736 77.081,47.534 77.408,47.207L77.41,47.205C77.737,46.878 77.939,46.426 77.939,45.928C77.939,45.254 77.155,44.097 76.632,43.325C76.523,43.164 76.426,43.021 76.336,42.878C76.317,42.848 76.292,42.821 76.26,42.801C76.148,42.73 76.001,42.763 75.93,42.875C75.839,43.019 75.742,43.161 75.632,43.324C75.109,44.095 74.324,45.254 74.324,45.928C74.324,46.427 74.526,46.879 74.853,47.206L74.854,47.206Z" style="fill:white;"/>
        </g>
        <g transform="matrix(4.16667,0,0,4.16667,0,0)">
            <path d="M72.49,47.207L72.492,47.205C72.819,46.878 73.021,46.426 73.021,45.928C73.021,45.254 72.237,44.097 71.714,43.325C71.605,43.164 71.508,43.021 71.417,42.878C71.399,42.848 71.373,42.821 71.341,42.801C71.23,42.73 71.082,42.763 71.012,42.875C70.921,43.018 70.824,43.161 70.714,43.324C70.191,44.095 69.406,45.254 69.406,45.928C69.406,46.427 69.608,46.879 69.935,47.206C70.262,47.534 70.714,47.736 71.213,47.736C71.711,47.736 72.163,47.534 72.49,47.207Z" style="fill:white;"/>
        </g>
        <g transform="matrix(4.16667,0,0,4.16667,0,0)">
            <path d="M65.659,41.412L76.225,41.412C77.142,41.412 77.973,41.04 78.574,40.44C79.175,39.838 79.547,39.008 79.547,38.09C79.547,37.173 79.175,36.342 78.574,35.741C77.973,35.14 77.142,34.769 76.225,34.769C75.748,34.769 75.284,34.87 74.861,35.06C74.435,35.252 74.051,35.532 73.737,35.886C73.519,36.133 73.142,36.156 72.896,35.938C72.65,35.72 72.627,35.343 72.845,35.097C73.275,34.612 73.796,34.231 74.371,33.972C74.465,33.93 74.56,33.891 74.657,33.855C74.317,33.237 73.842,32.716 73.277,32.324C72.54,31.812 71.648,31.52 70.705,31.52C69.591,31.52 68.56,31.926 67.768,32.607C66.975,33.288 66.419,34.244 66.251,35.344C66.225,35.519 66.123,35.668 65.981,35.759C65.888,35.819 65.778,35.853 65.659,35.853C64.892,35.853 64.197,36.165 63.694,36.668C63.191,37.17 62.88,37.865 62.88,38.633C62.88,39.401 63.191,40.096 63.694,40.598C64.197,41.101 64.892,41.412 65.659,41.412Z" style="fill:white;"/>
        </g>
    </g>
</svg>
