<?xml version="1.0" encoding="UTF-8" standalone="no"?>
<!DOCTYPE svg PUBLIC "-//W3C//DTD SVG 1.1//EN" "http://www.w3.org/Graphics/SVG/1.1/DTD/svg11.dtd">
<svg width="100%" height="100%" viewBox="0 0 83 82" version="1.1" xmlns="http://www.w3.org/2000/svg" xmlns:xlink="http://www.w3.org/1999/xlink" xml:space="preserve" xmlns:serif="http://www.serif.com/" style="fill-rule:evenodd;clip-rule:evenodd;stroke-linejoin:round;stroke-miterlimit:2;">
    <g transform="matrix(1,0,0,1,-255.529,-254.987)">
        <g transform="matrix(4.16667,0,0,4.16667,0,0)">
            <path d="M71.843,80.544C72.131,80.663 72.445,80.729 72.774,80.729C73.446,80.729 74.054,80.456 74.495,80.016L74.495,80.015C74.719,79.791 74.9,79.523 75.023,79.225C75.142,78.937 75.208,78.623 75.208,78.295C75.208,77.622 74.935,77.014 74.495,76.573C74.271,76.35 74.003,76.169 73.704,76.045C73.416,75.926 73.102,75.86 72.774,75.86C72.751,75.86 72.73,75.861 72.708,75.863L66.977,75.863L66.977,75.862C66.774,75.862 66.59,75.945 66.457,76.078L66.456,76.079C66.322,76.212 66.24,76.396 66.24,76.599C66.24,76.802 66.322,76.986 66.456,77.119L66.456,77.12C66.589,77.253 66.773,77.336 66.977,77.336L66.977,77.335L72.708,77.335C72.729,77.337 72.751,77.338 72.774,77.338C73.038,77.338 73.277,77.445 73.45,77.618C73.539,77.707 73.611,77.812 73.658,77.928C73.705,78.04 73.73,78.163 73.73,78.295C73.73,78.426 73.705,78.549 73.658,78.661C73.61,78.778 73.539,78.883 73.451,78.972L73.45,78.971C73.361,79.06 73.256,79.132 73.14,79.18C73.028,79.226 72.905,79.251 72.774,79.251C72.643,79.251 72.519,79.226 72.407,79.18C72.291,79.132 72.186,79.06 72.097,78.971L72.096,78.972C72.008,78.883 71.937,78.778 71.889,78.661C71.842,78.549 71.817,78.426 71.817,78.295C71.817,78.091 71.734,77.906 71.6,77.772C71.467,77.639 71.282,77.556 71.078,77.556C70.874,77.556 70.689,77.639 70.556,77.772C70.422,77.906 70.339,78.091 70.339,78.295C70.339,78.623 70.405,78.937 70.524,79.225C70.648,79.523 70.828,79.791 71.052,80.015L71.052,80.016C71.276,80.24 71.544,80.42 71.843,80.544Z" style="fill:white;"/>
        </g>
        <g transform="matrix(4.16667,0,0,4.16667,0,0)">
            <path d="M71.878,66.858C72.243,67.241 72.55,67.685 72.783,68.177C72.891,68.168 72.999,68.163 73.108,68.163C74.209,68.163 75.206,68.61 75.928,69.332C76.014,69.418 76.097,69.508 76.175,69.602C76.42,69.897 76.624,70.227 76.776,70.585C76.989,70.317 77.161,70.021 77.29,69.706C77.467,69.273 77.561,68.81 77.561,68.342C77.561,67.346 77.157,66.445 76.505,65.792C75.852,65.14 74.95,64.736 73.955,64.736C73.285,64.736 72.643,64.922 72.09,65.256C71.7,65.492 71.354,65.803 71.075,66.175L71.103,66.195C71.382,66.389 71.642,66.611 71.878,66.858Z" style="fill:white;"/>
        </g>
        <g transform="matrix(4.16667,0,0,4.16667,0,0)">
            <path d="M73.427,61.725L73.427,63.179C73.427,63.47 73.663,63.707 73.955,63.707C74.246,63.707 74.482,63.47 74.482,63.179L74.482,61.725C74.482,61.433 74.246,61.197 73.955,61.197C73.663,61.197 73.427,61.433 73.427,61.725Z" style="fill:white;"/>
        </g>
        <g transform="matrix(4.16667,0,0,4.16667,0,0)">
            <path d="M77.978,65.064L79.007,64.036C79.213,63.83 79.213,63.496 79.007,63.29C78.801,63.084 78.467,63.084 78.261,63.29L77.232,64.318C77.026,64.524 77.026,64.858 77.232,65.064C77.438,65.27 77.772,65.27 77.978,65.064Z" style="fill:white;"/>
        </g>
        <g transform="matrix(4.16667,0,0,4.16667,0,0)">
            <path d="M80.572,67.814L79.117,67.814C78.826,67.814 78.59,68.051 78.59,68.342C78.59,68.633 78.826,68.87 79.117,68.87L80.572,68.87C80.863,68.87 81.1,68.633 81.1,68.342C81.1,68.051 80.863,67.814 80.572,67.814Z" style="fill:white;"/>
        </g>
        <g transform="matrix(4.16667,0,0,4.16667,0,0)">
            <path d="M77.978,71.62C77.772,71.414 77.438,71.414 77.232,71.62C77.026,71.826 77.026,72.16 77.232,72.366L78.261,73.394C78.467,73.6 78.801,73.6 79.007,73.394C79.213,73.188 79.213,72.854 79.007,72.648L77.978,71.62Z" style="fill:white;"/>
        </g>
        <g transform="matrix(4.16667,0,0,4.16667,0,0)">
            <g transform="matrix(1,0,0,1,-0.0634995,0)">
                <path d="M68.902,63.29C68.696,63.496 68.696,63.83 68.902,64.036L69.931,65.064C70.137,65.27 70.471,65.27 70.677,65.064C70.883,64.858 70.883,64.524 70.677,64.318L69.649,63.29C69.443,63.084 69.108,63.084 68.902,63.29Z" style="fill:white;"/>
            </g>
        </g>
        <g transform="matrix(4.16667,0,0,4.16667,0,0)">
            <path d="M75.182,74.225C75.712,73.695 76.041,72.961 76.041,72.151C76.041,71.342 75.712,70.608 75.182,70.078C74.651,69.547 73.918,69.219 73.108,69.219C72.687,69.219 72.277,69.309 71.904,69.476C71.528,69.646 71.188,69.893 70.911,70.206C70.719,70.423 70.387,70.443 70.169,70.251C69.952,70.059 69.932,69.726 70.124,69.509C70.503,69.08 70.964,68.744 71.471,68.516C71.554,68.478 71.638,68.444 71.723,68.412C71.424,67.867 71.004,67.407 70.505,67.06C69.855,66.609 69.067,66.351 68.235,66.351C67.251,66.351 66.342,66.71 65.642,67.311C64.943,67.912 64.451,68.756 64.303,69.727C64.28,69.882 64.191,70.012 64.069,70.091C64.068,70.092 64.066,70.093 64.065,70.094C63.983,70.146 63.885,70.177 63.781,70.177C63.103,70.177 62.49,70.451 62.046,70.895C61.602,71.339 61.327,71.953 61.327,72.63C61.327,73.308 61.602,73.922 62.046,74.365C62.49,74.809 63.103,75.084 63.781,75.084L73.108,75.084C73.918,75.084 74.651,74.756 75.182,74.225Z" style="fill:white;"/>
        </g>
    </g>
</svg>
