<?xml version="1.0" encoding="UTF-8" standalone="no"?>
<!DOCTYPE svg PUBLIC "-//W3C//DTD SVG 1.1//EN" "http://www.w3.org/Graphics/SVG/1.1/DTD/svg11.dtd">
<svg width="100%" height="100%" viewBox="0 0 92 63" version="1.1" xmlns="http://www.w3.org/2000/svg" xmlns:xlink="http://www.w3.org/1999/xlink" xml:space="preserve" xmlns:serif="http://www.serif.com/" style="fill-rule:evenodd;clip-rule:evenodd;stroke-linejoin:round;stroke-miterlimit:2;">
    <g transform="matrix(1,0,0,1,-120.404,-133.733)">
        <g transform="matrix(4.16667,0,0,4.16667,0,0)">
            <path d="M43.642,34.21L43.642,32.624C43.642,32.333 43.406,32.096 43.115,32.096C42.823,32.096 42.587,32.333 42.587,32.624L42.587,34.21C42.587,34.502 42.823,34.738 43.115,34.738C43.406,34.738 43.642,34.502 43.642,34.21Z" style="fill:white;"/>
        </g>
        <g transform="matrix(4.16667,0,0,4.16667,0,0)">
            <path d="M47.845,34.365L46.723,35.487C46.517,35.693 46.517,36.027 46.723,36.233C46.929,36.439 47.264,36.439 47.47,36.233L48.591,35.111C48.797,34.905 48.797,34.571 48.591,34.365C48.385,34.159 48.051,34.159 47.845,34.365Z" style="fill:white;"/>
        </g>
        <g transform="matrix(4.16667,0,0,4.16667,0,0)">
            <path d="M50.332,39.314L48.746,39.314C48.454,39.314 48.218,39.55 48.218,39.842C48.218,40.133 48.454,40.369 48.746,40.369L50.332,40.369C50.624,40.369 50.86,40.133 50.86,39.842C50.86,39.55 50.624,39.314 50.332,39.314Z" style="fill:white;"/>
        </g>
        <g transform="matrix(4.16667,0,0,4.16667,0,0)">
            <path d="M47.47,43.45C47.264,43.244 46.929,43.244 46.723,43.45C46.517,43.656 46.517,43.991 46.723,44.197L47.845,45.318C48.051,45.524 48.385,45.524 48.591,45.318C48.797,45.112 48.797,44.778 48.591,44.572L47.47,43.45Z" style="fill:white;"/>
        </g>
        <g transform="matrix(4.16667,0,0,4.16667,0,0)">
            <path d="M37.638,34.365C37.432,34.571 37.432,34.905 37.638,35.111L38.76,36.233C38.966,36.439 39.3,36.439 39.506,36.233C39.712,36.027 39.712,35.693 39.506,35.487L38.384,34.365C38.178,34.159 37.844,34.159 37.638,34.365Z" style="fill:white;"/>
        </g>
        <g transform="matrix(4.16667,0,0,4.16667,0,0)">
            <path d="M44.287,46.195C44.883,45.599 45.251,44.776 45.251,43.867C45.251,42.958 44.883,42.134 44.287,41.538C43.691,40.943 42.868,40.574 41.958,40.574C41.486,40.574 41.026,40.675 40.607,40.863C40.185,41.053 39.804,41.331 39.492,41.682C39.3,41.9 38.968,41.92 38.75,41.728C38.533,41.535 38.512,41.203 38.705,40.986C39.119,40.519 39.621,40.152 40.174,39.903C40.283,39.854 40.395,39.809 40.508,39.769C40.171,39.134 39.691,38.6 39.116,38.201C38.388,37.696 37.509,37.408 36.579,37.408C35.479,37.408 34.462,37.809 33.68,38.481C32.898,39.153 32.349,40.096 32.183,41.182C32.16,41.336 32.07,41.468 31.945,41.549C31.863,41.601 31.765,41.632 31.661,41.632C30.897,41.632 30.206,41.941 29.706,42.441C29.206,42.941 28.897,43.632 28.897,44.396C28.897,45.159 29.206,45.85 29.706,46.35C30.206,46.85 30.897,47.16 31.661,47.16L41.958,47.16C42.868,47.16 43.691,46.791 44.287,46.195Z" style="fill:white;"/>
        </g>
        <g transform="matrix(4.16667,0,0,4.16667,0,0)">
            <path d="M46.687,41.366C46.892,40.887 47,40.369 47,39.842C47,38.769 46.565,37.798 45.862,37.094C45.159,36.391 44.188,35.956 43.115,35.956C42.393,35.956 41.701,36.157 41.106,36.517C40.674,36.777 40.293,37.123 39.988,37.538C40.266,37.758 40.523,38.005 40.755,38.275C41.078,38.652 41.352,39.075 41.566,39.537C41.696,39.525 41.827,39.519 41.958,39.519C43.159,39.519 44.246,40.006 45.033,40.792C45.206,40.966 45.365,41.154 45.508,41.355C45.732,41.67 45.914,42.017 46.048,42.387C46.314,42.081 46.529,41.735 46.687,41.366Z" style="fill:white;"/>
        </g>
    </g>
</svg>
