<?xml version="1.0" encoding="UTF-8" standalone="no"?>
<!DOCTYPE svg PUBLIC "-//W3C//DTD SVG 1.1//EN" "http://www.w3.org/Graphics/SVG/1.1/DTD/svg11.dtd">
<svg width="100%" height="100%" viewBox="0 0 65 65" version="1.1" xmlns="http://www.w3.org/2000/svg" xmlns:xlink="http://www.w3.org/1999/xlink" xml:space="preserve" xmlns:serif="http://www.serif.com/" style="fill-rule:evenodd;clip-rule:evenodd;stroke-linejoin:round;stroke-miterlimit:2;">
    <g transform="matrix(1,0,0,1,-3.325,-2.27915)">
        <g transform="matrix(4.16667,0,0,4.16667,0,0)">
            <path d="M5.796,11.04C6.499,11.743 7.47,12.178 8.543,12.178C9.616,12.178 10.587,11.743 11.29,11.04C11.994,10.337 12.429,9.366 12.429,8.293C12.429,7.22 11.994,6.249 11.29,5.545C10.587,4.842 9.616,4.407 8.543,4.407C7.47,4.407 6.499,4.842 5.796,5.545C5.093,6.249 4.658,7.22 4.658,8.293C4.658,9.366 5.093,10.337 5.796,11.04Z" style="fill:white;"/>
        </g>
        <g transform="matrix(4.16667,0,0,4.16667,0,0)">
            <path d="M8.543,3.189C8.834,3.189 9.071,2.953 9.071,2.661L9.071,1.075C9.071,0.784 8.834,0.547 8.543,0.547C8.252,0.547 8.015,0.784 8.015,1.075L8.015,2.661C8.015,2.953 8.252,3.189 8.543,3.189Z" style="fill:white;"/>
        </g>
        <g transform="matrix(4.16667,0,0,4.16667,0,0)">
            <path d="M12.898,4.684L14.02,3.562C14.226,3.356 14.226,3.022 14.02,2.816C13.814,2.61 13.48,2.61 13.274,2.816L12.152,3.938C11.946,4.144 11.946,4.478 12.152,4.684C12.358,4.89 12.692,4.89 12.898,4.684Z" style="fill:white;"/>
        </g>
        <g transform="matrix(4.16667,0,0,4.16667,0,0)">
            <path d="M13.647,8.293C13.647,8.584 13.883,8.821 14.174,8.821L15.761,8.821C16.052,8.821 16.288,8.584 16.288,8.293C16.288,8.001 16.052,7.765 15.761,7.765L14.174,7.765C13.883,7.765 13.647,8.001 13.647,8.293Z" style="fill:white;"/>
        </g>
        <g transform="matrix(4.16667,0,0,4.16667,0,0)">
            <path d="M12.152,11.902C11.946,12.108 11.946,12.442 12.152,12.648L13.274,13.769C13.48,13.975 13.814,13.975 14.02,13.769C14.226,13.563 14.226,13.229 14.02,13.023L12.898,11.902C12.692,11.696 12.358,11.696 12.152,11.902Z" style="fill:white;"/>
        </g>
        <g transform="matrix(4.16667,0,0,4.16667,0,0)">
            <path d="M8.015,13.924L8.015,15.51C8.015,15.802 8.252,16.038 8.543,16.038C8.834,16.038 9.071,15.802 9.071,15.51L9.071,13.924C9.071,13.632 8.834,13.396 8.543,13.396C8.252,13.396 8.015,13.632 8.015,13.924Z" style="fill:white;"/>
        </g>
        <g transform="matrix(4.16667,0,0,4.16667,0,0)">
            <path d="M4.188,11.902L3.066,13.023C2.86,13.229 2.86,13.563 3.066,13.769C3.272,13.975 3.606,13.975 3.813,13.769L4.934,12.648C5.14,12.442 5.14,12.108 4.934,11.902C4.728,11.696 4.394,11.696 4.188,11.902Z" style="fill:white;"/>
        </g>
        <g transform="matrix(4.16667,0,0,4.16667,0,0)">
            <path d="M1.325,8.821L2.912,8.821C3.203,8.821 3.44,8.584 3.44,8.293C3.44,8.001 3.203,7.765 2.912,7.765L1.325,7.765C1.034,7.765 0.798,8.001 0.798,8.293C0.798,8.584 1.034,8.821 1.325,8.821Z" style="fill:white;"/>
        </g>
        <g transform="matrix(4.16667,0,0,4.16667,0,0)">
            <path d="M4.188,4.684C4.394,4.89 4.728,4.89 4.934,4.684C5.14,4.478 5.14,4.144 4.934,3.938L3.813,2.816C3.606,2.61 3.272,2.61 3.066,2.816C2.86,3.022 2.86,3.356 3.066,3.562L4.188,4.684Z" style="fill:white;"/>
        </g>
    </g>
</svg>
