<?xml version="1.0" encoding="UTF-8" standalone="no"?>
<svg
   xmlns:dc="http://purl.org/dc/elements/1.1/"
   xmlns:cc="http://creativecommons.org/ns#"
   xmlns:rdf="http://www.w3.org/1999/02/22-rdf-syntax-ns#"
   xmlns:svg="http://www.w3.org/2000/svg"
   xmlns="http://www.w3.org/2000/svg"
   xmlns:sodipodi="http://sodipodi.sourceforge.net/DTD/sodipodi-0.dtd"
   xmlns:inkscape="http://www.inkscape.org/namespaces/inkscape"
   version="1.1"
   x="0px"
   y="0px"
   viewBox="0 0 28.115999 45.794998"
   enable-background="new 0 0 50 50"
   xml:space="preserve"
   id="svg18"
   sodipodi:docname="themostatefull.svg"
   width="28.115999"
   height="45.794998"
   inkscape:version="0.92.0 r15299"><metadata
     id="metadata24"><rdf:RDF><cc:Work
         rdf:about=""><dc:format>image/svg+xml</dc:format><dc:type
           rdf:resource="http://purl.org/dc/dcmitype/StillImage" /><dc:title></dc:title></cc:Work></rdf:RDF></metadata><defs
     id="defs22" /><sodipodi:namedview
     pagecolor="#ffffff"
     bordercolor="#666666"
     borderopacity="1"
     objecttolerance="10"
     gridtolerance="10"
     guidetolerance="10"
     inkscape:pageopacity="0"
     inkscape:pageshadow="2"
     inkscape:window-width="1920"
     inkscape:window-height="1027"
     id="namedview20"
     showgrid="false"
     inkscape:pagecheckerboard="true"
     fit-margin-top="0"
     fit-margin-left="0"
     fit-margin-right="0"
     fit-margin-bottom="0"
     inkscape:zoom="15.104"
     inkscape:cx="16.797336"
     inkscape:cy="22.330024"
     inkscape:window-x="-8"
     inkscape:window-y="-8"
     inkscape:window-maximized="1"
     inkscape:current-layer="svg18" /><g
     id="g12"
     transform="translate(-11.913,-2.103)"><path
       d="M 30.473,26.115 V 8.528 c 0,-1.714 -0.67,-3.326 -1.883,-4.542 -1.196,-1.198 -2.853,-1.883 -4.545,-1.883 -3.526,0 -6.397,2.883 -6.397,6.426 v 17.297 c -3.558,2.129 -5.735,5.948 -5.735,10.148 0,6.575 5.35,11.924 11.923,11.924 6.559,0 11.898,-5.349 11.898,-11.924 -0.01,-3.968 -2.003,-7.679 -5.261,-9.859 z m -6.641,19.114 c -5.104,0 -9.258,-4.153 -9.258,-9.256 0,-3.473 1.917,-6.602 5.006,-8.171 l 0.729,-0.37 V 8.528 c 0,-2.071 1.675,-3.759 3.729,-3.759 0.988,0 1.96,0.401 2.664,1.104 0.721,0.722 1.099,1.639 1.099,2.654 v 19.095 l 0.667,0.385 c 2.831,1.628 4.589,4.685 4.589,7.966 0,5.105 -4.136,9.256 -9.225,9.256 z"
       id="path2"
       style="fill:#ffffff"
       inkscape:connector-curvature="0" /><path
       d="M 25.326,30.939 25.127377,8.8035212 c -0.0066,-0.7369704 -0.331169,-1.7974534 -1.068169,-1.7974534 -0.738,0 -1.331792,0.9942491 -1.334,1.7312458 L 22.659,30.834 c -2.386,0.534 -4.167,2.654 -4.167,5.2 0,2.942 2.39,5.333 5.334,5.333 2.944,0 5.333,-2.391 5.333,-5.333 0,-2.424 -1.621,-4.442 -3.833,-5.095 z"
       id="path4"
       style="fill:#ffffff"
       inkscape:connector-curvature="0"
       sodipodi:nodetypes="cssscsssc" /><path
       d="m 38.696,12.31 h -4.889 c -0.735,0 -1.335,0.597 -1.335,1.333 0,0.735 0.6,1.334 1.335,1.334 h 4.889 c 0.736,0 1.333,-0.599 1.333,-1.334 0,-0.736 -0.596,-1.333 -1.333,-1.333 z"
       id="path6"
       style="fill:#ffffff"
       inkscape:connector-curvature="0" /><path
       d="m 38.696,16.53 h -4.889 c -0.735,0 -1.335,0.599 -1.335,1.333 0,0.737 0.6,1.333 1.335,1.333 h 4.889 c 0.736,0 1.333,-0.596 1.333,-1.333 0,-0.734 -0.596,-1.333 -1.333,-1.333 z"
       id="path8"
       style="fill:#ffffff"
       inkscape:connector-curvature="0" /><path
       d="m 38.696,20.752 h -4.889 c -0.735,0 -1.335,0.599 -1.335,1.333 0,0.737 0.6,1.334 1.335,1.334 h 4.889 c 0.736,0 1.333,-0.597 1.333,-1.334 0,-0.734 -0.596,-1.333 -1.333,-1.333 z"
       id="path10"
       style="fill:#ffffff"
       inkscape:connector-curvature="0" /></g></svg>