<?xml version="1.0" encoding="UTF-8" standalone="no"?>
<!DOCTYPE svg PUBLIC "-//W3C//DTD SVG 1.1//EN" "http://www.w3.org/Graphics/SVG/1.1/DTD/svg11.dtd">
<svg width="100%" height="100%" viewBox="0 0 467 463" version="1.1" xmlns="http://www.w3.org/2000/svg" xmlns:xlink="http://www.w3.org/1999/xlink" xml:space="preserve" xmlns:serif="http://www.serif.com/" style="fill-rule:evenodd;clip-rule:evenodd;stroke-linejoin:round;stroke-miterlimit:2;">
    <g transform="matrix(4.16667,0,0,4.16667,0,0)">
        <path d="M99.58,99.169C99.415,99.169 99.266,99.236 99.158,99.343L99.157,99.342C99.05,99.45 98.984,99.599 98.984,99.765C98.984,99.92 99.042,100.061 99.137,100.167C99.145,100.173 99.151,100.18 99.158,100.186C99.266,100.294 99.415,100.361 99.58,100.361C99.745,100.361 99.895,100.295 100.003,100.187C100.11,100.08 100.176,99.93 100.176,99.765C100.176,99.599 100.11,99.45 100.003,99.342C99.895,99.235 99.745,99.169 99.58,99.169Z" style="fill:rgb(3,4,4);"/>
        <path d="M107.055,101.215C106.8,101.549 106.322,101.613 105.988,101.358C105.81,101.223 105.614,101.118 105.409,101.049C105.204,100.98 104.984,100.944 104.757,100.944C104.197,100.944 103.69,101.171 103.323,101.538C102.957,101.904 102.73,102.411 102.73,102.971C102.73,103.531 102.957,104.038 103.323,104.405C103.69,104.771 104.197,104.998 104.757,104.998C104.959,104.998 105.156,104.969 105.344,104.912C105.533,104.856 105.713,104.772 105.878,104.662C106.229,104.43 106.701,104.526 106.933,104.877C107.165,105.227 107.069,105.7 106.719,105.932C106.427,106.125 106.11,106.274 105.779,106.373C105.448,106.473 105.104,106.525 104.757,106.525C103.776,106.525 102.887,106.127 102.244,105.484C101.601,104.841 101.204,103.952 101.204,102.971C101.204,101.99 101.601,101.102 102.244,100.459C102.887,99.816 103.776,99.418 104.757,99.418C105.141,99.418 105.525,99.483 105.892,99.607C106.258,99.731 106.603,99.913 106.912,100.148C107.246,100.403 107.31,100.881 107.055,101.215ZM100.775,100.962C100.469,101.268 100.046,101.458 99.58,101.458C99.112,101.458 98.689,101.268 98.382,100.962C98.371,100.95 98.36,100.938 98.35,100.926C98.063,100.623 97.886,100.214 97.886,99.765C97.886,99.299 98.076,98.876 98.382,98.57L98.383,98.569L98.382,98.567C98.689,98.261 99.112,98.071 99.58,98.071C100.046,98.071 100.469,98.261 100.775,98.567L100.777,98.57C101.084,98.876 101.273,99.299 101.273,99.765C101.273,100.231 101.084,100.653 100.777,100.96L100.775,100.962ZM102.549,94.36C100.357,94.36 98.372,95.249 96.936,96.685C95.499,98.122 94.611,100.106 94.611,102.298C94.611,104.49 95.499,106.474 96.936,107.911C98.372,109.347 100.357,110.236 102.549,110.236C104.741,110.236 106.725,109.347 108.162,107.911C109.598,106.474 110.487,104.49 110.487,102.298C110.487,100.106 109.598,98.122 108.162,96.685C106.725,95.249 104.741,94.36 102.549,94.36Z" style="fill:white;"/>
        <path d="M5.796,11.04C6.499,11.743 7.47,12.178 8.543,12.178C9.616,12.178 10.587,11.743 11.29,11.04C11.994,10.337 12.429,9.366 12.429,8.293C12.429,7.22 11.994,6.249 11.29,5.545C10.587,4.842 9.616,4.407 8.543,4.407C7.47,4.407 6.499,4.842 5.796,5.545C5.093,6.249 4.658,7.22 4.658,8.293C4.658,9.366 5.093,10.337 5.796,11.04Z" style="fill:white;"/>
        <path d="M8.543,3.189C8.834,3.189 9.071,2.953 9.071,2.661L9.071,1.075C9.071,0.784 8.834,0.547 8.543,0.547C8.252,0.547 8.015,0.784 8.015,1.075L8.015,2.661C8.015,2.953 8.252,3.189 8.543,3.189Z" style="fill:white;"/>
        <path d="M12.898,4.684L14.02,3.562C14.226,3.356 14.226,3.022 14.02,2.816C13.814,2.61 13.48,2.61 13.274,2.816L12.152,3.938C11.946,4.144 11.946,4.478 12.152,4.684C12.358,4.89 12.692,4.89 12.898,4.684Z" style="fill:white;"/>
        <path d="M13.647,8.293C13.647,8.584 13.883,8.821 14.174,8.821L15.761,8.821C16.052,8.821 16.288,8.584 16.288,8.293C16.288,8.001 16.052,7.765 15.761,7.765L14.174,7.765C13.883,7.765 13.647,8.001 13.647,8.293Z" style="fill:white;"/>
        <path d="M12.152,11.902C11.946,12.108 11.946,12.442 12.152,12.648L13.274,13.769C13.48,13.975 13.814,13.975 14.02,13.769C14.226,13.563 14.226,13.229 14.02,13.023L12.898,11.902C12.692,11.696 12.358,11.696 12.152,11.902Z" style="fill:white;"/>
        <path d="M8.015,13.924L8.015,15.51C8.015,15.802 8.252,16.038 8.543,16.038C8.834,16.038 9.071,15.802 9.071,15.51L9.071,13.924C9.071,13.632 8.834,13.396 8.543,13.396C8.252,13.396 8.015,13.632 8.015,13.924Z" style="fill:white;"/>
        <path d="M4.188,11.902L3.066,13.023C2.86,13.229 2.86,13.563 3.066,13.769C3.272,13.975 3.606,13.975 3.813,13.769L4.934,12.648C5.14,12.442 5.14,12.108 4.934,11.902C4.728,11.696 4.394,11.696 4.188,11.902Z" style="fill:white;"/>
        <path d="M1.325,8.821L2.912,8.821C3.203,8.821 3.44,8.584 3.44,8.293C3.44,8.001 3.203,7.765 2.912,7.765L1.325,7.765C1.034,7.765 0.798,8.001 0.798,8.293C0.798,8.584 1.034,8.821 1.325,8.821Z" style="fill:white;"/>
        <path d="M4.188,4.684C4.394,4.89 4.728,4.89 4.934,4.684C5.14,4.478 5.14,4.144 4.934,3.938L3.813,2.816C3.606,2.61 3.272,2.61 3.066,2.816C2.86,3.022 2.86,3.356 3.066,3.562L4.188,4.684Z" style="fill:white;"/>
        <path d="M96.645,8.476L106.173,8.476C106.195,8.478 106.218,8.479 106.241,8.479C107.231,8.479 108.128,8.077 108.777,7.428C109.426,6.779 109.827,5.883 109.827,4.893C109.827,3.903 109.426,3.006 108.777,2.357C108.128,1.709 107.231,1.307 106.241,1.307C105.251,1.307 104.355,1.709 103.706,2.357C103.057,3.006 102.656,3.903 102.656,4.893C102.656,5.323 103.004,5.672 103.434,5.672C103.864,5.672 104.213,5.323 104.213,4.893C104.213,4.333 104.44,3.826 104.807,3.459C105.174,3.092 105.681,2.865 106.241,2.865C106.801,2.865 107.309,3.092 107.676,3.459C108.042,3.826 108.27,4.333 108.27,4.893C108.27,5.453 108.042,5.96 107.676,6.327C107.309,6.694 106.801,6.921 106.241,6.921C106.218,6.921 106.195,6.922 106.173,6.924L96.645,6.924C96.217,6.924 95.869,7.271 95.869,7.7C95.869,8.128 96.217,8.476 96.645,8.476Z" style="fill:white;"/>
        <path d="M96.046,10.902L103.453,10.902C103.476,10.904 103.499,10.905 103.522,10.905C103.911,10.905 104.263,11.063 104.517,11.318C104.772,11.572 104.93,11.924 104.93,12.313C104.93,12.702 104.772,13.054 104.517,13.309C104.263,13.563 103.911,13.721 103.522,13.721C103.133,13.721 102.781,13.563 102.526,13.309C102.271,13.054 102.114,12.702 102.114,12.313C102.114,11.883 101.765,11.534 101.335,11.534C100.905,11.534 100.556,11.883 100.556,12.313C100.556,13.132 100.888,13.873 101.425,14.41C101.962,14.946 102.703,15.278 103.522,15.278C104.341,15.278 105.082,14.946 105.619,14.41C106.155,13.873 106.487,13.132 106.487,12.313C106.487,11.494 106.155,10.753 105.619,10.216C105.082,9.68 104.341,9.348 103.522,9.348C103.499,9.348 103.476,9.349 103.453,9.351L96.046,9.351C95.618,9.351 95.27,9.698 95.27,10.126C95.27,10.555 95.618,10.902 96.046,10.902Z" style="fill:white;"/>
        <path d="M8.546,63.414C6.318,63.414 4.301,64.317 2.841,65.778C1.388,67.23 0.487,69.235 0.478,71.45L0.478,71.482C0.478,71.774 0.714,72.01 1.005,72.01C1.297,72.01 1.533,71.774 1.533,71.482C1.533,71.109 1.686,70.77 1.933,70.523C2.179,70.277 2.518,70.124 2.892,70.124C3.265,70.124 3.604,70.277 3.851,70.523C4.097,70.77 4.25,71.109 4.25,71.482C4.25,71.774 4.487,72.01 4.778,72.01C5.069,72.01 5.306,71.774 5.306,71.482C5.306,71.109 5.459,70.77 5.705,70.523C5.952,70.277 6.291,70.124 6.664,70.124C7.037,70.124 7.377,70.277 7.623,70.523C7.87,70.77 8.023,71.109 8.023,71.482L8.025,71.482L8.018,76.913C8.018,76.916 8.016,76.919 8.016,76.923C8.016,77.362 8.194,77.759 8.482,78.046C8.769,78.334 9.166,78.512 9.605,78.512C10.044,78.512 10.441,78.334 10.728,78.046C11.016,77.759 11.194,77.362 11.194,76.923C11.194,76.632 10.957,76.395 10.666,76.395C10.375,76.395 10.138,76.632 10.138,76.923C10.138,77.07 10.079,77.204 9.982,77.3C9.886,77.397 9.752,77.456 9.605,77.456C9.458,77.456 9.324,77.397 9.228,77.3C9.131,77.204 9.072,77.07 9.072,76.923C9.072,76.919 9.07,76.916 9.07,76.913L9.076,71.482L9.078,71.482C9.078,71.109 9.231,70.77 9.478,70.523C9.724,70.277 10.064,70.124 10.437,70.124C10.81,70.124 11.15,70.277 11.396,70.523C11.642,70.77 11.796,71.109 11.796,71.482C11.796,71.774 12.032,72.01 12.323,72.01C12.615,72.01 12.851,71.774 12.851,71.482C12.851,71.109 13.004,70.77 13.25,70.523C13.497,70.277 13.836,70.124 14.209,70.124L14.21,70.124C14.555,70.124 14.871,70.253 15.111,70.466C15.353,70.681 15.519,70.982 15.559,71.321L15.56,71.32C15.591,71.588 15.823,71.792 16.097,71.784C16.387,71.776 16.616,71.535 16.608,71.244C16.545,69.068 15.62,67.108 14.164,65.694C12.711,64.283 10.729,63.414 8.546,63.414Z" style="fill:white;"/>
        <path d="M16.141,103.424C15.973,103.384 15.803,103.43 15.68,103.534L15.68,103.533C15.146,103.985 14.532,104.346 13.861,104.592C13.218,104.828 12.52,104.957 11.791,104.957C10.129,104.957 8.625,104.283 7.536,103.194C6.447,102.105 5.773,100.6 5.773,98.939C5.773,98.237 5.892,97.565 6.11,96.944C6.337,96.298 6.671,95.702 7.092,95.177C7.274,94.95 7.238,94.619 7.012,94.437C6.876,94.328 6.703,94.297 6.546,94.339L6.546,94.338C4.798,94.806 3.282,95.845 2.211,97.242C1.163,98.608 0.541,100.316 0.541,102.168C0.541,104.407 1.448,106.434 2.915,107.901C4.382,109.368 6.409,110.275 8.648,110.275C10.54,110.275 12.282,109.626 13.662,108.538C15.069,107.428 16.1,105.86 16.531,104.057C16.598,103.775 16.424,103.491 16.141,103.424Z" style="fill:white;"/>
        <path d="M39.881,66.148C37.775,66.148 35.867,67.001 34.487,68.382C33.113,69.756 32.261,71.651 32.253,73.746L32.252,73.776L32.253,73.776C32.253,74.074 32.494,74.315 32.792,74.315C33.089,74.315 33.331,74.074 33.331,73.776C33.331,73.437 33.47,73.128 33.694,72.905C33.918,72.681 34.226,72.542 34.565,72.542C34.904,72.542 35.213,72.681 35.436,72.904C35.66,73.128 35.799,73.437 35.799,73.776C35.799,74.074 36.041,74.315 36.338,74.315C36.636,74.315 36.877,74.074 36.877,73.776C36.877,73.437 37.017,73.128 37.24,72.905C37.464,72.681 37.773,72.542 38.112,72.542C38.451,72.542 38.76,72.681 38.983,72.904C39.207,73.128 39.346,73.437 39.346,73.776L39.348,73.776L39.342,78.843C39.341,78.859 39.34,78.875 39.34,78.891C39.34,79.313 39.512,79.697 39.791,79.977L39.79,79.978C40.068,80.256 40.452,80.428 40.877,80.428C41.3,80.428 41.684,80.255 41.963,79.975C42.241,79.697 42.413,79.314 42.413,78.891C42.413,78.593 42.172,78.352 41.874,78.352C41.577,78.352 41.335,78.593 41.335,78.891C41.335,79.019 41.284,79.134 41.201,79.217C41.119,79.299 41.005,79.349 40.877,79.349C40.75,79.349 40.635,79.298 40.552,79.215L40.551,79.216L40.55,79.215C40.469,79.134 40.418,79.019 40.418,78.891C40.418,78.875 40.417,78.86 40.416,78.845L40.423,73.776L40.425,73.776C40.425,73.437 40.564,73.128 40.788,72.904C41.011,72.681 41.32,72.542 41.659,72.542C41.998,72.542 42.306,72.681 42.53,72.905C42.754,73.128 42.893,73.437 42.893,73.776C42.893,74.074 43.135,74.315 43.432,74.315C43.73,74.315 43.971,74.074 43.971,73.776C43.971,73.437 44.111,73.128 44.334,72.904C44.558,72.681 44.867,72.542 45.206,72.542C45.52,72.542 45.807,72.659 46.025,72.852C46.245,73.048 46.395,73.321 46.432,73.629L46.433,73.629C46.465,73.902 46.701,74.11 46.981,74.103C47.278,74.095 47.512,73.847 47.504,73.551C47.444,71.493 46.57,69.64 45.193,68.303C43.819,66.969 41.945,66.148 39.881,66.148Z" style="fill:white;"/>
        <path d="M37.534,62.035L37.53,65.22C37.53,65.517 37.771,65.757 38.067,65.757C38.364,65.757 38.604,65.517 38.604,65.22L38.608,62.035C38.608,61.739 38.368,61.498 38.071,61.498C37.775,61.498 37.534,61.739 37.534,62.035Z" style="fill:white;"/>
        <path d="M33.929,62.346L33.925,67.036C33.925,67.332 34.165,67.573 34.462,67.573C34.759,67.573 34.999,67.332 34.999,67.036L35.004,62.346C35.004,62.049 34.763,61.809 34.466,61.809C34.17,61.809 33.929,62.049 33.929,62.346Z" style="fill:white;"/>
        <path d="M35.775,64.139L35.768,65.637C35.767,65.933 36.007,66.175 36.303,66.176C36.6,66.177 36.841,65.938 36.842,65.641L36.849,64.143C36.85,63.846 36.61,63.605 36.314,63.604C36.017,63.603 35.776,63.842 35.775,64.139Z" style="fill:white;"/>
        <path d="M39.833,62.862C39.537,62.863 39.297,63.104 39.298,63.401L39.305,64.899C39.306,65.195 39.547,65.435 39.844,65.434C40.14,65.433 40.38,65.191 40.379,64.894L40.372,63.397C40.371,63.1 40.13,62.86 39.833,62.862Z" style="fill:white;"/>
        <path d="M41.689,61.498L41.688,61.499L41.688,61.498C41.687,61.498 41.686,61.499 41.684,61.499C41.683,61.499 41.682,61.498 41.681,61.498C41.384,61.498 41.144,61.739 41.144,62.035L41.148,65.22C41.148,65.517 41.388,65.757 41.685,65.757L41.692,65.757C41.988,65.757 42.229,65.517 42.229,65.22L42.225,62.529L42.226,62.035C42.226,61.739 41.985,61.498 41.689,61.498Z" style="fill:white;"/>
        <path d="M45.292,61.809C44.996,61.809 44.755,62.049 44.755,62.346L44.76,67.036C44.76,67.332 45,67.573 45.297,67.573C45.593,67.573 45.834,67.332 45.834,67.036L45.829,62.346C45.829,62.049 45.589,61.809 45.292,61.809Z" style="fill:white;"/>
        <path d="M43.445,63.604C43.149,63.605 42.909,63.846 42.91,64.143L42.917,65.641C42.918,65.938 43.159,66.177 43.456,66.176C43.752,66.175 43.992,65.933 43.991,65.637L43.984,64.139C43.983,63.842 43.742,63.603 43.445,63.604Z" style="fill:white;"/>
        <path d="M41.04,105.211C40.932,105.015 40.799,104.833 40.645,104.67C40.49,104.505 40.316,104.361 40.127,104.242L39.945,104.126L39.945,96.677C39.945,95.991 39.406,95.433 38.702,95.433C38.537,95.433 38.377,95.467 38.228,95.528C37.753,95.723 37.458,96.161 37.458,96.677L37.458,104.126L37.276,104.242C37.088,104.361 36.914,104.505 36.759,104.67C36.605,104.833 36.472,105.015 36.364,105.211C36.257,105.405 36.174,105.614 36.118,105.832C36.064,106.044 36.035,106.267 36.035,106.496C36.035,106.854 36.107,107.198 36.238,107.514C36.375,107.844 36.572,108.138 36.816,108.382C37.06,108.625 37.354,108.823 37.684,108.96C38,109.091 38.344,109.163 38.702,109.163C39.06,109.163 39.404,109.091 39.72,108.96C40.049,108.823 40.344,108.625 40.587,108.382C40.831,108.138 41.029,107.844 41.165,107.514C41.296,107.198 41.368,106.854 41.368,106.496C41.368,106.267 41.34,106.044 41.285,105.832C41.23,105.614 41.147,105.405 41.04,105.211Z" style="fill:rgb(3,4,4);"/>
        <path d="M41.89,107.817C41.717,108.235 41.46,108.615 41.14,108.935C40.82,109.255 40.441,109.512 40.022,109.685C39.618,109.852 39.172,109.945 38.702,109.945C38.231,109.945 37.785,109.852 37.381,109.685C36.963,109.512 36.583,109.255 36.263,108.935C35.943,108.615 35.686,108.235 35.513,107.817C35.346,107.413 35.253,106.967 35.253,106.496C35.253,106.195 35.29,105.907 35.359,105.638C35.431,105.36 35.539,105.09 35.679,104.836C35.784,104.645 35.904,104.468 36.037,104.306C36.17,104.144 36.321,103.992 36.486,103.853L36.676,103.694L36.676,96.677C36.676,96.402 36.73,96.141 36.829,95.904C36.923,95.678 37.057,95.472 37.224,95.294L37.271,95.248C37.459,95.06 37.684,94.908 37.932,94.804C38.168,94.706 38.429,94.651 38.702,94.651C38.975,94.651 39.235,94.706 39.471,94.804C39.72,94.908 39.944,95.06 40.133,95.248L40.18,95.294C40.346,95.472 40.481,95.679 40.575,95.904C40.673,96.141 40.727,96.402 40.727,96.677L40.727,103.694L40.917,103.853C41.083,103.992 41.233,104.144 41.367,104.306C41.499,104.468 41.619,104.645 41.724,104.836C41.864,105.09 41.973,105.36 42.044,105.638C42.114,105.907 42.15,106.195 42.15,106.496C42.15,106.967 42.058,107.413 41.89,107.817ZM42.648,104.329C42.514,104.087 42.357,103.856 42.179,103.639C42.055,103.487 41.922,103.346 41.783,103.214L41.783,96.677C41.783,96.262 41.699,95.865 41.548,95.5C41.062,94.33 39.976,93.596 38.702,93.596C37.427,93.596 36.342,94.33 35.856,95.5C35.704,95.865 35.621,96.262 35.621,96.677L35.621,103.214C35.481,103.346 35.349,103.487 35.225,103.639C35.046,103.856 34.889,104.087 34.756,104.329C34.577,104.653 34.437,105.005 34.341,105.379C34.247,105.742 34.198,106.117 34.198,106.496C34.198,107.103 34.319,107.684 34.54,108.217C34.77,108.771 35.104,109.268 35.517,109.681C35.93,110.094 36.427,110.428 36.981,110.658C37.514,110.878 38.095,111 38.702,111C39.308,111 39.89,110.878 40.422,110.658C40.977,110.428 41.473,110.094 41.887,109.681C42.3,109.268 42.634,108.771 42.863,108.217C43.084,107.684 43.206,107.103 43.206,106.496C43.206,106.117 43.156,105.742 43.063,105.378C42.967,105.005 42.826,104.653 42.648,104.329Z" style="fill:white;"/>
        <path d="M45.033,101.468L42.66,101.472C42.37,101.472 42.135,101.708 42.135,101.998C42.135,102.288 42.37,102.524 42.66,102.524L45.033,102.52C45.323,102.52 45.559,102.284 45.559,101.994C45.559,101.704 45.323,101.468 45.033,101.468Z" style="fill:white;"/>
        <path d="M42.66,97.098L44.219,97.094C44.509,97.094 44.745,96.859 44.745,96.569C44.745,96.278 44.509,96.043 44.219,96.043L42.66,96.047C42.37,96.047 42.135,96.282 42.135,96.572C42.135,96.863 42.37,97.098 42.66,97.098Z" style="fill:white;"/>
        <path d="M45.033,97.852L42.66,97.855C42.37,97.855 42.135,98.091 42.135,98.381C42.135,98.671 42.37,98.907 42.66,98.907L45.033,98.903C45.323,98.903 45.559,98.667 45.559,98.377C45.559,98.087 45.323,97.852 45.033,97.852Z" style="fill:white;"/>
        <path d="M42.66,100.715L44.219,100.711C44.509,100.711 44.745,100.476 44.745,100.186C44.745,99.896 44.509,99.66 44.219,99.66L42.66,99.664C42.37,99.664 42.135,99.9 42.135,100.19C42.135,100.48 42.37,100.715 42.66,100.715Z" style="fill:white;"/>
        <path d="M73.996,97.098L75.554,97.094C75.844,97.094 76.08,96.859 76.08,96.569C76.08,96.278 75.844,96.043 75.554,96.043L73.996,96.047C73.705,96.047 73.47,96.282 73.47,96.572C73.47,96.863 73.705,97.098 73.996,97.098Z" style="fill:white;"/>
        <path d="M76.368,101.468L73.996,101.472C73.705,101.472 73.47,101.708 73.47,101.998C73.47,102.288 73.705,102.524 73.996,102.524L76.368,102.52C76.658,102.52 76.894,102.284 76.894,101.994C76.894,101.704 76.658,101.468 76.368,101.468Z" style="fill:white;"/>
        <path d="M73.226,107.817C73.052,108.235 72.796,108.615 72.476,108.935C71.852,109.559 70.989,109.945 70.037,109.945C69.566,109.945 69.12,109.852 68.716,109.685C68.298,109.512 67.918,109.255 67.598,108.935C67.278,108.615 67.021,108.235 66.848,107.817C66.681,107.413 66.588,106.967 66.588,106.496C66.588,106.195 66.625,105.907 66.694,105.638C66.766,105.36 66.874,105.09 67.014,104.836C67.119,104.645 67.239,104.468 67.372,104.306C67.505,104.144 67.656,103.992 67.822,103.853L68.011,103.694L68.011,96.677C68.011,96.402 68.066,96.141 68.164,95.904C68.258,95.678 68.392,95.472 68.559,95.294L68.606,95.248C68.794,95.06 69.019,94.908 69.267,94.804C69.504,94.706 69.764,94.651 70.037,94.651C70.31,94.651 70.57,94.706 70.807,94.804C71.055,94.908 71.28,95.06 71.468,95.248L71.515,95.294C71.681,95.472 71.816,95.678 71.91,95.904C72.008,96.141 72.062,96.402 72.062,96.677L72.062,103.694L72.252,103.853C72.418,103.992 72.569,104.144 72.702,104.306C72.834,104.468 72.954,104.645 73.059,104.836C73.199,105.09 73.308,105.36 73.379,105.638C73.449,105.907 73.486,106.195 73.486,106.496C73.486,106.967 73.393,107.413 73.226,107.817ZM73.983,104.329C73.85,104.087 73.692,103.856 73.514,103.639C73.39,103.487 73.257,103.346 73.118,103.214L73.118,96.677C73.118,96.262 73.034,95.865 72.883,95.5C72.397,94.33 71.312,93.596 70.037,93.596C68.762,93.596 67.677,94.33 67.191,95.5C67.04,95.865 66.956,96.262 66.956,96.677L66.956,103.214C66.816,103.346 66.684,103.487 66.56,103.639C66.381,103.856 66.224,104.087 66.091,104.329C65.913,104.653 65.772,105.005 65.676,105.379C65.582,105.742 65.533,106.117 65.533,106.496C65.533,107.103 65.655,107.684 65.875,108.217C66.105,108.771 66.439,109.268 66.852,109.681C67.265,110.094 67.762,110.428 68.316,110.658C68.849,110.878 69.43,111 70.037,111C71.28,111 72.407,110.496 73.222,109.681C73.635,109.268 73.969,108.771 74.198,108.217C74.419,107.684 74.541,107.103 74.541,106.496C74.541,106.117 74.491,105.742 74.398,105.379C74.302,105.005 74.161,104.653 73.983,104.329Z" style="fill:white;"/>
        <path d="M76.368,97.852L73.996,97.855C73.705,97.855 73.47,98.091 73.47,98.381C73.47,98.671 73.705,98.907 73.996,98.907L76.368,98.903C76.658,98.903 76.894,98.667 76.894,98.377C76.894,98.087 76.658,97.852 76.368,97.852Z" style="fill:white;"/>
        <path d="M73.996,100.715L75.554,100.711C75.844,100.711 76.08,100.476 76.08,100.186C76.08,99.896 75.844,99.66 75.554,99.66L73.996,99.664C73.705,99.664 73.47,99.9 73.47,100.19C73.47,100.48 73.705,100.715 73.996,100.715Z" style="fill:white;"/>
        <path d="M72.375,105.211C72.267,105.015 72.134,104.833 71.98,104.67C71.825,104.505 71.651,104.361 71.462,104.242L71.28,104.126L71.28,101.388C71.28,100.872 70.985,100.435 70.511,100.239C70.362,100.178 70.202,100.144 70.037,100.144C69.872,100.144 69.712,100.178 69.563,100.239C69.088,100.435 68.793,100.872 68.793,101.388L68.793,104.126L68.611,104.242C68.423,104.361 68.249,104.505 68.094,104.67C67.94,104.833 67.807,105.015 67.699,105.211C67.592,105.405 67.509,105.614 67.453,105.832C67.399,106.044 67.37,106.267 67.37,106.496C67.37,106.854 67.442,107.198 67.573,107.514C67.71,107.844 67.908,108.138 68.151,108.382C68.395,108.625 68.689,108.823 69.019,108.96C69.335,109.091 69.679,109.163 70.037,109.163C70.395,109.163 70.739,109.091 71.055,108.96C71.385,108.823 71.679,108.625 71.923,108.382C72.166,108.138 72.364,107.844 72.5,107.514C72.631,107.198 72.704,106.854 72.704,106.496C72.704,106.267 72.675,106.044 72.621,105.832C72.565,105.614 72.482,105.405 72.375,105.211Z" style="fill:white;"/>
        <path d="M34.237,13.396L44.968,13.396C45.922,13.396 46.785,13.009 47.41,12.384C48.035,11.76 48.422,10.896 48.422,9.943C48.422,8.989 48.035,8.125 47.41,7.501C46.785,6.876 45.922,6.489 44.968,6.489C44.473,6.489 43.99,6.595 43.551,6.793C43.108,6.992 42.708,7.283 42.382,7.651C42.189,7.869 41.857,7.889 41.64,7.697C41.422,7.504 41.402,7.172 41.594,6.955C42.023,6.47 42.544,6.09 43.118,5.832C43.239,5.777 43.363,5.728 43.489,5.684C43.135,5.01 42.627,4.443 42.019,4.02C41.257,3.491 40.336,3.19 39.362,3.19C38.211,3.19 37.146,3.61 36.327,4.313C35.508,5.016 34.933,6.005 34.759,7.142C34.737,7.294 34.651,7.421 34.532,7.501L34.531,7.502L34.521,7.508L34.511,7.515L34.487,7.528L34.486,7.529L34.466,7.539L34.465,7.54C34.396,7.573 34.319,7.591 34.237,7.591C33.436,7.591 32.71,7.916 32.185,8.441C31.66,8.966 31.335,9.692 31.335,10.494C31.335,11.295 31.66,12.021 32.185,12.546C32.71,13.071 33.436,13.396 34.237,13.396Z" style="fill:white;"/>
        <path d="M43.642,34.21L43.642,32.624C43.642,32.333 43.406,32.096 43.115,32.096C42.823,32.096 42.587,32.333 42.587,32.624L42.587,34.21C42.587,34.502 42.823,34.738 43.115,34.738C43.406,34.738 43.642,34.502 43.642,34.21Z" style="fill:white;"/>
        <path d="M47.845,34.365L46.723,35.487C46.517,35.693 46.517,36.027 46.723,36.233C46.929,36.439 47.264,36.439 47.47,36.233L48.591,35.111C48.797,34.905 48.797,34.571 48.591,34.365C48.385,34.159 48.051,34.159 47.845,34.365Z" style="fill:white;"/>
        <path d="M50.332,39.314L48.746,39.314C48.454,39.314 48.218,39.55 48.218,39.842C48.218,40.133 48.454,40.369 48.746,40.369L50.332,40.369C50.624,40.369 50.86,40.133 50.86,39.842C50.86,39.55 50.624,39.314 50.332,39.314Z" style="fill:white;"/>
        <path d="M47.47,43.45C47.264,43.244 46.929,43.244 46.723,43.45C46.517,43.656 46.517,43.991 46.723,44.197L47.845,45.318C48.051,45.524 48.385,45.524 48.591,45.318C48.797,45.112 48.797,44.778 48.591,44.572L47.47,43.45Z" style="fill:white;"/>
        <path d="M37.638,34.365C37.432,34.571 37.432,34.905 37.638,35.111L38.76,36.233C38.966,36.439 39.3,36.439 39.506,36.233C39.712,36.027 39.712,35.693 39.506,35.487L38.384,34.365C38.178,34.159 37.844,34.159 37.638,34.365Z" style="fill:white;"/>
        <path d="M44.287,46.195C44.883,45.599 45.251,44.776 45.251,43.867C45.251,42.958 44.883,42.134 44.287,41.538C43.691,40.943 42.868,40.574 41.958,40.574C41.486,40.574 41.026,40.675 40.607,40.863C40.185,41.053 39.804,41.331 39.492,41.682C39.3,41.9 38.968,41.92 38.75,41.728C38.533,41.535 38.512,41.203 38.705,40.986C39.119,40.519 39.621,40.152 40.174,39.903C40.283,39.854 40.395,39.809 40.508,39.769C40.171,39.134 39.691,38.6 39.116,38.201C38.388,37.696 37.509,37.408 36.579,37.408C35.479,37.408 34.462,37.809 33.68,38.481C32.898,39.153 32.349,40.096 32.183,41.182C32.16,41.336 32.07,41.468 31.945,41.549C31.863,41.601 31.765,41.632 31.661,41.632C30.897,41.632 30.206,41.941 29.706,42.441C29.206,42.941 28.897,43.632 28.897,44.396C28.897,45.159 29.206,45.85 29.706,46.35C30.206,46.85 30.897,47.16 31.661,47.16L41.958,47.16C42.868,47.16 43.691,46.791 44.287,46.195Z" style="fill:white;"/>
        <path d="M46.687,41.366C46.892,40.887 47,40.369 47,39.842C47,38.769 46.565,37.798 45.862,37.094C45.159,36.391 44.188,35.956 43.115,35.956C42.393,35.956 41.701,36.157 41.106,36.517C40.674,36.777 40.293,37.123 39.988,37.538C40.266,37.758 40.523,38.005 40.755,38.275C41.078,38.652 41.352,39.075 41.566,39.537C41.696,39.525 41.827,39.519 41.958,39.519C43.159,39.519 44.246,40.006 45.033,40.792C45.206,40.966 45.365,41.154 45.508,41.355C45.732,41.67 45.914,42.017 46.048,42.387C46.314,42.081 46.529,41.735 46.687,41.366Z" style="fill:white;"/>
        <path d="M13.633,36.321C13.138,36.321 12.655,36.427 12.215,36.625C11.773,36.824 11.373,37.115 11.047,37.484C10.854,37.701 10.522,37.722 10.305,37.529C10.087,37.337 10.067,37.005 10.259,36.787C10.688,36.303 11.209,35.923 11.783,35.664C11.904,35.61 12.028,35.561 12.153,35.517C11.8,34.842 11.292,34.275 10.684,33.852C9.922,33.324 9.001,33.022 8.027,33.022C6.876,33.022 5.811,33.442 4.992,34.146C4.173,34.849 3.598,35.837 3.424,36.974C3.4,37.134 3.305,37.27 3.171,37.35C3.092,37.397 3,37.423 2.902,37.423C2.1,37.423 1.375,37.748 0.85,38.273C0.324,38.799 0,39.524 0,40.326C0,41.127 0.324,41.853 0.85,42.378C1.375,42.903 2.1,43.228 2.902,43.228L5.785,43.228C5.77,43.061 5.798,42.887 5.877,42.724L7.476,39.415C7.63,39.07 7.974,38.845 8.356,38.845L10.218,38.845C10.388,38.846 10.555,38.893 10.701,38.98C11.158,39.25 11.31,39.844 11.039,40.301L10.574,41.084C10.722,41.121 10.86,41.193 10.976,41.294C11.375,41.643 11.416,42.256 11.067,42.654L10.564,43.228L13.633,43.228C14.587,43.228 15.45,42.842 16.075,42.217C16.7,41.592 17.087,40.729 17.087,39.775C17.087,38.821 16.7,37.958 16.075,37.333C15.45,36.708 14.587,36.321 13.633,36.321Z" style="fill:white;"/>
        <path d="M8.356,39.66C8.293,39.66 8.239,39.699 8.217,39.754L6.61,43.079C6.575,43.153 6.606,43.242 6.68,43.278C6.701,43.288 6.723,43.293 6.745,43.293L7.707,43.293L6.643,46.031C6.614,46.108 6.652,46.194 6.728,46.224C6.789,46.247 6.856,46.228 6.896,46.181L10.454,42.118C10.508,42.056 10.501,41.962 10.44,41.908C10.411,41.883 10.376,41.871 10.342,41.871L10.342,41.87L9.161,41.87L10.339,39.885C10.381,39.814 10.357,39.723 10.286,39.681C10.262,39.667 10.236,39.66 10.21,39.66L8.356,39.66Z" style="fill:white;"/>
        <path d="M72.581,12.489C72.986,12.258 73.321,11.928 73.56,11.539C73.799,11.15 73.942,10.703 73.966,10.237C73.98,9.935 74.237,9.701 74.54,9.715C74.842,9.729 75.076,9.986 75.062,10.289C75.029,10.948 74.83,11.574 74.497,12.115C74.164,12.656 73.695,13.116 73.122,13.443C72.859,13.593 72.524,13.501 72.374,13.237C72.225,12.974 72.317,12.639 72.581,12.489ZM71.213,14.648C72.47,14.648 73.609,14.139 74.432,13.315C75.256,12.491 75.765,11.353 75.765,10.096C75.765,8.3 73.356,4.745 71.748,2.373C71.393,1.784 71.037,1.802 70.682,2.368C69.075,4.741 66.661,8.302 66.661,10.096C66.661,11.353 67.171,12.491 67.995,13.315C68.818,14.139 69.956,14.648 71.213,14.648Z" style="fill:white;"/>
        <path d="M66.423,42.801C66.312,42.73 66.164,42.763 66.093,42.875C66.002,43.019 65.906,43.161 65.796,43.323C65.273,44.095 64.487,45.254 64.487,45.928C64.487,46.427 64.69,46.879 65.017,47.206C65.344,47.534 65.796,47.736 66.295,47.736C66.786,47.736 67.232,47.539 67.559,47.22C67.564,47.216 67.569,47.211 67.573,47.206C67.9,46.879 68.103,46.427 68.103,45.928C68.103,45.254 67.319,44.097 66.796,43.325C66.687,43.164 66.59,43.021 66.499,42.878C66.481,42.848 66.455,42.821 66.423,42.801Z" style="fill:white;"/>
        <path d="M74.854,47.206C75.181,47.533 75.633,47.736 76.132,47.736C76.629,47.736 77.081,47.534 77.408,47.207L77.41,47.205C77.737,46.878 77.939,46.426 77.939,45.928C77.939,45.254 77.155,44.097 76.632,43.325C76.523,43.164 76.426,43.021 76.336,42.878C76.317,42.848 76.292,42.821 76.26,42.801C76.148,42.73 76.001,42.763 75.93,42.875C75.839,43.019 75.742,43.161 75.632,43.324C75.109,44.095 74.324,45.254 74.324,45.928C74.324,46.427 74.526,46.879 74.853,47.206L74.854,47.206Z" style="fill:white;"/>
        <path d="M72.49,47.207L72.492,47.205C72.819,46.878 73.021,46.426 73.021,45.928C73.021,45.254 72.237,44.097 71.714,43.325C71.605,43.164 71.508,43.021 71.417,42.878C71.399,42.848 71.373,42.821 71.341,42.801C71.23,42.73 71.082,42.763 71.012,42.875C70.921,43.018 70.824,43.161 70.714,43.324C70.191,44.095 69.406,45.254 69.406,45.928C69.406,46.427 69.608,46.879 69.935,47.206C70.262,47.534 70.714,47.736 71.213,47.736C71.711,47.736 72.163,47.534 72.49,47.207Z" style="fill:white;"/>
        <path d="M65.659,41.412L76.225,41.412C77.142,41.412 77.973,41.04 78.574,40.44C79.175,39.838 79.547,39.008 79.547,38.09C79.547,37.173 79.175,36.342 78.574,35.741C77.973,35.14 77.142,34.769 76.225,34.769C75.748,34.769 75.284,34.87 74.861,35.06C74.435,35.252 74.051,35.532 73.737,35.886C73.519,36.133 73.142,36.156 72.896,35.938C72.65,35.72 72.627,35.343 72.845,35.097C73.275,34.612 73.796,34.231 74.371,33.972C74.465,33.93 74.56,33.891 74.657,33.855C74.317,33.237 73.842,32.716 73.277,32.324C72.54,31.812 71.648,31.52 70.705,31.52C69.591,31.52 68.56,31.926 67.768,32.607C66.975,33.288 66.419,34.244 66.251,35.344C66.225,35.519 66.123,35.668 65.981,35.759C65.888,35.819 65.778,35.853 65.659,35.853C64.892,35.853 64.197,36.165 63.694,36.668C63.191,37.17 62.88,37.865 62.88,38.633C62.88,39.401 63.191,40.096 63.694,40.598C64.197,41.101 64.892,41.412 65.659,41.412Z" style="fill:white;"/>
        <path d="M106.476,45.965C106.374,45.863 106.292,45.742 106.237,45.609C106.183,45.48 106.154,45.337 106.154,45.186C106.154,44.952 106.059,44.739 105.905,44.585C105.751,44.432 105.538,44.336 105.304,44.336C105.069,44.336 104.857,44.432 104.703,44.585C104.549,44.739 104.454,44.952 104.454,45.186C104.454,45.564 104.529,45.926 104.667,46.257C104.809,46.601 105.017,46.91 105.274,47.167L105.275,47.167C105.533,47.425 105.842,47.633 106.185,47.775C106.516,47.912 106.877,47.988 107.255,47.988C108.028,47.988 108.729,47.674 109.236,47.167L109.236,47.166C109.494,46.909 109.701,46.6 109.844,46.257C109.981,45.926 110.056,45.564 110.056,45.186C110.056,44.413 109.743,43.712 109.236,43.206C108.979,42.948 108.67,42.74 108.325,42.598C107.995,42.461 107.633,42.385 107.255,42.385C107.23,42.385 107.204,42.386 107.18,42.388L100.584,42.388L100.584,42.387C100.351,42.387 100.139,42.482 99.985,42.636L99.984,42.637C99.831,42.79 99.736,43.002 99.736,43.235C99.736,43.468 99.831,43.68 99.984,43.834L99.984,43.835C100.138,43.988 100.35,44.083 100.584,44.083L100.584,44.082L107.18,44.082C107.204,44.084 107.23,44.085 107.255,44.085C107.559,44.085 107.835,44.209 108.034,44.408C108.136,44.51 108.218,44.631 108.273,44.764C108.327,44.893 108.356,45.036 108.356,45.186C108.356,45.337 108.327,45.48 108.273,45.609C108.218,45.743 108.136,45.864 108.034,45.966L108.034,45.965C107.931,46.068 107.81,46.15 107.677,46.205C107.548,46.258 107.406,46.288 107.255,46.288C107.104,46.288 106.962,46.258 106.834,46.205C106.7,46.149 106.578,46.067 106.476,45.965Z" style="fill:white;"/>
        <path d="M96.906,41.317L107.64,41.317C108.572,41.317 109.416,40.939 110.026,40.329C110.637,39.718 111.015,38.874 111.015,37.942C111.015,37.01 110.637,36.167 110.026,35.556C109.416,34.946 108.572,34.568 107.64,34.568C107.155,34.568 106.684,34.671 106.255,34.864C105.822,35.059 105.431,35.343 105.112,35.703C104.891,35.954 104.509,35.977 104.258,35.756C104.008,35.534 103.985,35.152 104.206,34.902C104.643,34.409 105.173,34.022 105.757,33.759C105.852,33.716 105.949,33.676 106.047,33.64C105.702,33.012 105.219,32.483 104.645,32.084C103.896,31.564 102.99,31.268 102.033,31.268C100.901,31.268 99.853,31.681 99.048,32.373C98.243,33.064 97.678,34.035 97.507,35.153C97.481,35.327 97.384,35.473 97.249,35.564L97.246,35.566L97.244,35.568L97.234,35.574L97.232,35.576L97.219,35.583L97.209,35.59L97.194,35.598C97.108,35.644 97.011,35.67 96.906,35.67C96.127,35.67 95.421,35.986 94.91,36.497C94.399,37.008 94.083,37.714 94.083,38.494C94.083,39.273 94.399,39.979 94.91,40.49C95.421,41.001 96.127,41.317 96.906,41.317Z" style="fill:white;"/>
        <path d="M71.843,80.544C72.131,80.663 72.445,80.729 72.774,80.729C73.446,80.729 74.054,80.456 74.495,80.016L74.495,80.015C74.719,79.791 74.9,79.523 75.023,79.225C75.142,78.937 75.208,78.623 75.208,78.295C75.208,77.622 74.935,77.014 74.495,76.573C74.271,76.35 74.003,76.169 73.704,76.045C73.416,75.926 73.102,75.86 72.774,75.86C72.751,75.86 72.73,75.861 72.708,75.863L66.977,75.863L66.977,75.862C66.774,75.862 66.59,75.945 66.457,76.078L66.456,76.079C66.322,76.212 66.24,76.396 66.24,76.599C66.24,76.802 66.322,76.986 66.456,77.119L66.456,77.12C66.589,77.253 66.773,77.336 66.977,77.336L66.977,77.335L72.708,77.335C72.729,77.337 72.751,77.338 72.774,77.338C73.038,77.338 73.277,77.445 73.45,77.618C73.539,77.707 73.611,77.812 73.658,77.928C73.705,78.04 73.73,78.163 73.73,78.295C73.73,78.426 73.705,78.549 73.658,78.661C73.61,78.778 73.539,78.883 73.451,78.972L73.45,78.971C73.361,79.06 73.256,79.132 73.14,79.18C73.028,79.226 72.905,79.251 72.774,79.251C72.643,79.251 72.519,79.226 72.407,79.18C72.291,79.132 72.186,79.06 72.097,78.971L72.096,78.972C72.008,78.883 71.937,78.778 71.889,78.661C71.842,78.549 71.817,78.426 71.817,78.295C71.817,78.091 71.734,77.906 71.6,77.772C71.467,77.639 71.282,77.556 71.078,77.556C70.874,77.556 70.689,77.639 70.556,77.772C70.422,77.906 70.339,78.091 70.339,78.295C70.339,78.623 70.405,78.937 70.524,79.225C70.648,79.523 70.828,79.791 71.052,80.015L71.052,80.016C71.276,80.24 71.544,80.42 71.843,80.544Z" style="fill:white;"/>
        <path d="M71.878,66.858C72.243,67.241 72.55,67.685 72.783,68.177C72.891,68.168 72.999,68.163 73.108,68.163C74.209,68.163 75.206,68.61 75.928,69.332C76.014,69.418 76.097,69.508 76.175,69.602C76.42,69.897 76.624,70.227 76.776,70.585C76.989,70.317 77.161,70.021 77.29,69.706C77.467,69.273 77.561,68.81 77.561,68.342C77.561,67.346 77.157,66.445 76.505,65.792C75.852,65.14 74.95,64.736 73.955,64.736C73.285,64.736 72.643,64.922 72.09,65.256C71.7,65.492 71.354,65.803 71.075,66.175L71.103,66.195C71.382,66.389 71.642,66.611 71.878,66.858Z" style="fill:white;"/>
        <path d="M73.427,61.725L73.427,63.179C73.427,63.47 73.663,63.707 73.955,63.707C74.246,63.707 74.482,63.47 74.482,63.179L74.482,61.725C74.482,61.433 74.246,61.197 73.955,61.197C73.663,61.197 73.427,61.433 73.427,61.725Z" style="fill:white;"/>
        <path d="M77.978,65.064L79.007,64.036C79.213,63.83 79.213,63.496 79.007,63.29C78.801,63.084 78.467,63.084 78.261,63.29L77.232,64.318C77.026,64.524 77.026,64.858 77.232,65.064C77.438,65.27 77.772,65.27 77.978,65.064Z" style="fill:white;"/>
        <path d="M80.572,67.814L79.117,67.814C78.826,67.814 78.59,68.051 78.59,68.342C78.59,68.633 78.826,68.87 79.117,68.87L80.572,68.87C80.863,68.87 81.1,68.633 81.1,68.342C81.1,68.051 80.863,67.814 80.572,67.814Z" style="fill:white;"/>
        <path d="M77.978,71.62C77.772,71.414 77.438,71.414 77.232,71.62C77.026,71.826 77.026,72.16 77.232,72.366L78.261,73.394C78.467,73.6 78.801,73.6 79.007,73.394C79.213,73.188 79.213,72.854 79.007,72.648L77.978,71.62Z" style="fill:white;"/>
        <g transform="matrix(1,0,0,1,-0.0634995,0)">
            <path d="M68.902,63.29C68.696,63.496 68.696,63.83 68.902,64.036L69.931,65.064C70.137,65.27 70.471,65.27 70.677,65.064C70.883,64.858 70.883,64.524 70.677,64.318L69.649,63.29C69.443,63.084 69.108,63.084 68.902,63.29Z" style="fill:white;"/>
        </g>
        <path d="M75.182,74.225C75.712,73.695 76.041,72.961 76.041,72.151C76.041,71.342 75.712,70.608 75.182,70.078C74.651,69.547 73.918,69.219 73.108,69.219C72.687,69.219 72.277,69.309 71.904,69.476C71.528,69.646 71.188,69.893 70.911,70.206C70.719,70.423 70.387,70.443 70.169,70.251C69.952,70.059 69.932,69.726 70.124,69.509C70.503,69.08 70.964,68.744 71.471,68.516C71.554,68.478 71.638,68.444 71.723,68.412C71.424,67.867 71.004,67.407 70.505,67.06C69.855,66.609 69.067,66.351 68.235,66.351C67.251,66.351 66.342,66.71 65.642,67.311C64.943,67.912 64.451,68.756 64.303,69.727C64.28,69.882 64.191,70.012 64.069,70.091C64.068,70.092 64.066,70.093 64.065,70.094C63.983,70.146 63.885,70.177 63.781,70.177C63.103,70.177 62.49,70.451 62.046,70.895C61.602,71.339 61.327,71.953 61.327,72.63C61.327,73.308 61.602,73.922 62.046,74.365C62.49,74.809 63.103,75.084 63.781,75.084L73.108,75.084C73.918,75.084 74.651,74.756 75.182,74.225Z" style="fill:white;"/>
        <path d="M103.36,75.332C103.359,75.042 103.123,74.808 102.832,74.809C102.542,74.81 102.308,75.046 102.309,75.336L102.315,76.87C102.316,77.16 102.553,77.395 102.843,77.394C103.133,77.393 103.368,77.156 103.367,76.866L103.36,75.332Z" style="fill:white;"/>
        <path d="M98.476,73.068C98.185,73.068 97.95,73.304 97.95,73.594L97.944,76.868C97.944,77.158 98.179,77.394 98.469,77.394C98.759,77.394 98.995,77.158 98.995,76.868L99.001,73.594C99.001,73.304 98.766,73.068 98.476,73.068Z" style="fill:white;"/>
        <path d="M107.147,75.336L107.147,75.305L107.146,75.296L107.146,75.292L107.145,75.283L107.144,75.279L107.144,75.276L107.143,75.265L107.142,75.256L107.141,75.252L107.14,75.243L107.137,75.23C107.135,75.222 107.134,75.215 107.132,75.207L107.131,75.205L107.128,75.192L107.124,75.18L107.123,75.176L107.12,75.168L107.12,75.167L107.116,75.156L107.115,75.152L107.112,75.144L107.11,75.14L107.107,75.132C107.104,75.124 107.1,75.117 107.097,75.109L107.096,75.108L107.095,75.105L107.091,75.097C107.083,75.082 107.075,75.067 107.066,75.053C107.059,75.042 107.052,75.032 107.044,75.021L107.042,75.018L107.036,75.011L107.034,75.008L107.021,74.992L107.014,74.985L107.01,74.979L106.986,74.955L106.983,74.953L106.974,74.944L106.971,74.942L106.964,74.936L106.958,74.93L106.955,74.928L106.948,74.922L106.945,74.92L106.938,74.914L106.935,74.912C106.924,74.904 106.914,74.897 106.903,74.89C106.889,74.881 106.874,74.873 106.859,74.865L106.852,74.861L106.848,74.86L106.847,74.859C106.839,74.856 106.832,74.852 106.824,74.849L106.816,74.846L106.813,74.844L106.789,74.836L106.788,74.836L106.78,74.833L106.773,74.831L106.764,74.828L106.751,74.825L106.749,74.824C106.741,74.822 106.734,74.821 106.726,74.819L106.713,74.816L106.704,74.815L106.7,74.814L106.691,74.813L106.678,74.812L106.673,74.811L106.664,74.81L106.66,74.81L106.651,74.809L106.593,74.809L106.583,74.81L106.579,74.81L106.57,74.811L106.566,74.812L106.553,74.813L106.544,74.814L106.54,74.815L106.531,74.816L106.518,74.819C106.51,74.821 106.502,74.822 106.494,74.824L106.492,74.825L106.48,74.828L106.479,74.828L106.443,74.84L106.439,74.841L106.431,74.844L106.427,74.846L106.419,74.849C106.411,74.852 106.404,74.856 106.397,74.859L106.396,74.86L106.392,74.861L106.384,74.865C106.369,74.873 106.354,74.881 106.34,74.89C106.329,74.897 106.319,74.904 106.309,74.912L106.306,74.914L106.299,74.92L106.296,74.922L106.289,74.928L106.286,74.93L106.272,74.942L106.261,74.953L106.258,74.955L106.231,74.982L106.229,74.985L106.223,74.992L106.217,74.998L106.215,75.002L106.209,75.008L106.202,75.018L106.199,75.021C106.192,75.032 106.185,75.042 106.178,75.053C106.169,75.067 106.16,75.082 106.153,75.097L106.149,75.105L106.147,75.108L106.147,75.109C106.143,75.117 106.14,75.124 106.137,75.132L106.133,75.14L106.132,75.144L106.129,75.152L106.127,75.156L106.123,75.167L106.123,75.168L106.12,75.176L106.118,75.183L106.116,75.192L106.115,75.192L106.112,75.205L106.112,75.207C106.11,75.215 106.108,75.222 106.106,75.23L106.105,75.239L106.102,75.252L106.102,75.256L106.101,75.265L106.101,75.266L106.099,75.276L106.099,75.283L106.098,75.292L106.097,75.296L106.097,75.309L106.096,75.319L106.096,75.336L106.09,76.866C106.089,77.156 106.323,77.393 106.613,77.394L106.63,77.394C106.921,77.393 107.155,77.156 107.154,76.866L107.147,75.336Z" style="fill:white;"/>
        <path d="M107.147,78.253L107.147,78.226L107.146,78.224L107.146,78.212L107.145,78.207L107.144,78.199L107.144,78.194L107.143,78.193L107.142,78.181L107.141,78.173L107.14,78.168L107.139,78.165L107.138,78.155L107.136,78.147L107.135,78.142L107.13,78.122L107.13,78.121L107.127,78.113L107.125,78.105L107.122,78.097L107.121,78.092L107.118,78.084L107.117,78.08L107.114,78.072L107.114,78.071L107.11,78.063L107.108,78.056L107.103,78.045L107.103,78.044L107.097,78.033L107.094,78.025L107.092,78.021L107.088,78.014L107.086,78.01L107.086,78.009L107.076,77.992L107.073,77.988L107.067,77.977L107.06,77.966L107.048,77.949L107.041,77.94L107.04,77.939L107.033,77.929L107.026,77.92L107.016,77.91L107.014,77.907L107.005,77.898L107.005,77.897L106.996,77.888L106.991,77.882L106.987,77.879L106.974,77.866L106.972,77.865L106.969,77.862L106.959,77.854L106.95,77.846L106.943,77.841L106.94,77.838L106.939,77.838L106.93,77.831L106.929,77.831L106.919,77.823L106.912,77.819L106.904,77.813L106.902,77.812L106.898,77.809L106.887,77.803L106.869,77.793L106.853,77.785L106.846,77.781L106.842,77.779L106.834,77.776L106.824,77.772L106.823,77.771L106.816,77.768L106.807,77.765L106.806,77.764L106.799,77.762L106.786,77.757L106.774,77.754L106.77,77.752L106.758,77.749L106.757,77.749L106.745,77.746L106.724,77.741L106.714,77.739L106.711,77.739L106.706,77.738L106.698,77.737L106.697,77.736L106.685,77.735L106.68,77.734L106.671,77.733L106.665,77.733L106.653,77.732L106.645,77.732L106.639,77.731L106.604,77.731L106.599,77.732L106.589,77.732L106.577,77.733L106.572,77.733L106.564,77.734L106.559,77.735L106.547,77.736L106.546,77.737L106.538,77.738L106.533,77.739L106.529,77.739L106.499,77.746L106.487,77.749L106.486,77.749L106.474,77.752L106.469,77.754L106.462,77.756L106.457,77.757L106.449,77.76L106.445,77.762L106.437,77.764L106.436,77.765L106.427,77.768L106.419,77.772L106.41,77.776L106.409,77.776L106.398,77.781L106.386,77.787L106.375,77.793L106.374,77.793L106.357,77.803L106.353,77.805L106.346,77.809L106.342,77.812L106.339,77.813L106.331,77.819L106.324,77.823L106.321,77.826L106.314,77.831L106.305,77.838L106.304,77.838L106.301,77.841L106.294,77.846L106.285,77.853L106.281,77.857L106.271,77.865L106.262,77.873L106.238,77.897L106.238,77.898L106.231,77.905L106.23,77.907L106.227,77.91L106.222,77.916L106.218,77.92L106.211,77.929L106.206,77.936L106.203,77.939L106.203,77.94L106.196,77.949L106.195,77.949L106.191,77.956L106.188,77.959L106.184,77.966L106.178,77.974L106.177,77.977L106.174,77.981L106.17,77.988L106.168,77.992L106.164,77.999L106.158,78.009L106.158,78.01L106.156,78.014L106.152,78.021L106.144,78.037L106.141,78.044L106.141,78.045L106.134,78.06L106.13,78.071L106.129,78.072L106.127,78.08L106.125,78.084L106.122,78.092L106.121,78.097L106.119,78.105L106.117,78.109L106.114,78.121L106.114,78.122L106.109,78.142L106.108,78.147L106.106,78.155L106.104,78.165L106.104,78.168L106.103,78.173L106.102,78.181L106.101,78.182L106.1,78.194L106.099,78.199L106.098,78.207L106.098,78.213L106.097,78.224L106.097,78.234L106.096,78.239L106.096,78.253L106.09,79.02C106.087,79.31 106.321,79.547 106.611,79.549L106.632,79.549C106.923,79.547 107.156,79.31 107.154,79.02L107.147,78.253Z" style="fill:white;"/>
        <path d="M96.063,73.594L96.056,78.831C96.056,79.122 96.292,79.357 96.582,79.357C96.872,79.357 97.108,79.122 97.108,78.831L97.114,73.594C97.114,73.304 96.879,73.068 96.589,73.068C96.298,73.068 96.063,73.304 96.063,73.594Z" style="fill:white;"/>
        <path d="M102.83,77.731C102.54,77.733 102.307,77.971 102.309,78.261L102.315,79.028C102.318,79.318 102.555,79.552 102.845,79.549C103.135,79.547 103.369,79.31 103.367,79.02L103.36,78.253C103.358,77.962 103.121,77.729 102.83,77.731Z" style="fill:white;"/>
        <path d="M98.48,77.731C98.19,77.729 97.952,77.962 97.95,78.253L97.944,79.02C97.941,79.31 98.175,79.547 98.465,79.549C98.755,79.552 98.993,79.318 98.995,79.028L99.001,78.261C99.004,77.971 98.77,77.733 98.48,77.731Z" style="fill:white;"/>
        <path d="M104.728,79.357C105.018,79.357 105.254,79.122 105.254,78.831L105.26,73.594C105.26,73.304 105.025,73.068 104.735,73.068L104.722,73.068C104.431,73.068 104.196,73.304 104.196,73.594L104.202,78.831C104.202,79.122 104.438,79.357 104.728,79.357Z" style="fill:white;"/>
        <g transform="matrix(1,0,0,1,-0.131384,-3.1762e-06)">
            <path d="M100.21,77.446L100.204,78.829C100.203,79.119 100.437,79.356 100.727,79.357C101.018,79.358 101.254,79.123 101.255,78.833L101.262,77.45C101.263,77.16 101.028,76.923 100.738,76.922C100.448,76.921 100.211,77.156 100.21,77.446Z" style="fill:white;"/>
        </g>
        <path d="M108.509,73.068C108.219,73.068 107.983,73.304 107.983,73.594L107.99,78.831C107.99,79.122 108.225,79.357 108.515,79.357C108.806,79.357 109.041,79.122 109.041,78.831L109.034,73.594C109.034,73.304 108.799,73.068 108.509,73.068Z" style="fill:white;"/>
        <path d="M96.907,72.583L99.79,72.583C99.775,72.415 99.804,72.241 99.882,72.079L101.482,68.769C101.636,68.424 101.98,68.199 102.362,68.199L104.224,68.199C104.394,68.201 104.561,68.247 104.707,68.334C105.164,68.604 105.316,69.199 105.045,69.655L104.58,70.439C104.728,70.476 104.866,70.547 104.982,70.649C105.381,70.998 105.421,71.61 105.072,72.009L104.57,72.583L107.639,72.583C108.593,72.583 109.456,72.196 110.081,71.571C110.706,70.947 111.093,70.083 111.093,69.129C111.093,68.176 110.706,67.312 110.081,66.687C109.456,66.063 108.593,65.676 107.639,65.676C107.143,65.676 106.661,65.782 106.221,65.979C105.779,66.179 105.379,66.47 105.052,66.838C104.86,67.056 104.528,67.076 104.31,66.884C104.093,66.691 104.073,66.359 104.265,66.142C104.694,65.657 105.215,65.277 105.788,65.019C105.91,64.964 106.034,64.915 106.159,64.871C105.806,64.197 105.298,63.629 104.69,63.207C103.928,62.678 103.007,62.377 102.033,62.377C100.882,62.377 99.817,62.796 98.997,63.5C98.178,64.203 97.603,65.192 97.43,66.329C97.405,66.488 97.31,66.625 97.177,66.704C97.098,66.751 97.006,66.778 96.907,66.778C96.106,66.778 95.38,67.103 94.855,67.628C94.33,68.153 94.005,68.879 94.005,69.68C94.005,70.482 94.33,71.208 94.855,71.733C95.38,72.258 96.106,72.583 96.907,72.583Z" style="fill:white;"/>
        <path d="M104.445,71.262C104.417,71.237 104.382,71.225 104.347,71.225L103.167,71.225L104.345,69.239C104.386,69.169 104.363,69.077 104.292,69.035C104.268,69.021 104.242,69.014 104.216,69.014L102.362,69.014C102.299,69.014 102.245,69.053 102.223,69.109L100.616,72.433C100.581,72.508 100.612,72.597 100.686,72.632C100.707,72.642 100.729,72.647 100.75,72.647L100.75,72.648L101.713,72.648L100.649,75.386C100.619,75.462 100.658,75.549 100.734,75.578C100.795,75.602 100.862,75.583 100.901,75.536L104.459,71.472C104.514,71.41 104.507,71.316 104.445,71.262Z" style="fill:white;"/>
    </g>
</svg>
