<?xml version="1.0" encoding="UTF-8" standalone="no"?>
<!DOCTYPE svg PUBLIC "-//W3C//DTD SVG 1.1//EN" "http://www.w3.org/Graphics/SVG/1.1/DTD/svg11.dtd">
<svg width="100%" height="100%" viewBox="0 0 72 56" version="1.1" xmlns="http://www.w3.org/2000/svg" xmlns:xlink="http://www.w3.org/1999/xlink" xml:space="preserve" xmlns:serif="http://www.serif.com/" style="fill-rule:evenodd;clip-rule:evenodd;stroke-linejoin:round;stroke-miterlimit:2;">
    <g transform="matrix(1,0,0,1,0,-137.592)">
        <g transform="matrix(4.16667,0,0,4.16667,0,0)">
            <path d="M13.633,36.321C13.138,36.321 12.655,36.427 12.215,36.625C11.773,36.824 11.373,37.115 11.047,37.484C10.854,37.701 10.522,37.722 10.305,37.529C10.087,37.337 10.067,37.005 10.259,36.787C10.688,36.303 11.209,35.923 11.783,35.664C11.904,35.61 12.028,35.561 12.153,35.517C11.8,34.842 11.292,34.275 10.684,33.852C9.922,33.324 9.001,33.022 8.027,33.022C6.876,33.022 5.811,33.442 4.992,34.146C4.173,34.849 3.598,35.837 3.424,36.974C3.4,37.134 3.305,37.27 3.171,37.35C3.092,37.397 3,37.423 2.902,37.423C2.1,37.423 1.375,37.748 0.85,38.273C0.324,38.799 0,39.524 0,40.326C0,41.127 0.324,41.853 0.85,42.378C1.375,42.903 2.1,43.228 2.902,43.228L5.785,43.228C5.77,43.061 5.798,42.887 5.877,42.724L7.476,39.415C7.63,39.07 7.974,38.845 8.356,38.845L10.218,38.845C10.388,38.846 10.555,38.893 10.701,38.98C11.158,39.25 11.31,39.844 11.039,40.301L10.574,41.084C10.722,41.121 10.86,41.193 10.976,41.294C11.375,41.643 11.416,42.256 11.067,42.654L10.564,43.228L13.633,43.228C14.587,43.228 15.45,42.842 16.075,42.217C16.7,41.592 17.087,40.729 17.087,39.775C17.087,38.821 16.7,37.958 16.075,37.333C15.45,36.708 14.587,36.321 13.633,36.321Z" style="fill:white;"/>
        </g>
        <g transform="matrix(4.16667,0,0,4.16667,0,0)">
            <path d="M8.356,39.66C8.293,39.66 8.239,39.699 8.217,39.754L6.61,43.079C6.575,43.153 6.606,43.242 6.68,43.278C6.701,43.288 6.723,43.293 6.745,43.293L7.707,43.293L6.643,46.031C6.614,46.108 6.652,46.194 6.728,46.224C6.789,46.247 6.856,46.228 6.896,46.181L10.454,42.118C10.508,42.056 10.501,41.962 10.44,41.908C10.411,41.883 10.376,41.871 10.342,41.871L10.342,41.87L9.161,41.87L10.339,39.885C10.381,39.814 10.357,39.723 10.286,39.681C10.262,39.667 10.236,39.66 10.21,39.66L8.356,39.66Z" style="fill:white;"/>
        </g>
    </g>
</svg>
