<?xml version="1.0" encoding="UTF-8" standalone="no"?>
<!DOCTYPE svg PUBLIC "-//W3C//DTD SVG 1.1//EN" "http://www.w3.org/Graphics/SVG/1.1/DTD/svg11.dtd">
<svg width="100%" height="100%" viewBox="0 0 68 63" version="1.1" xmlns="http://www.w3.org/2000/svg" xmlns:xlink="http://www.w3.org/1999/xlink" xml:space="preserve" xmlns:serif="http://www.serif.com/" style="fill-rule:evenodd;clip-rule:evenodd;stroke-linejoin:round;stroke-miterlimit:2;">
    <g transform="matrix(1,0,0,1,-1.99167,-264.225)">
        <g transform="matrix(4.16667,0,0,4.16667,0,0)">
            <path d="M8.546,63.414C6.318,63.414 4.301,64.317 2.841,65.778C1.388,67.23 0.487,69.235 0.478,71.45L0.478,71.482C0.478,71.774 0.714,72.01 1.005,72.01C1.297,72.01 1.533,71.774 1.533,71.482C1.533,71.109 1.686,70.77 1.933,70.523C2.179,70.277 2.518,70.124 2.892,70.124C3.265,70.124 3.604,70.277 3.851,70.523C4.097,70.77 4.25,71.109 4.25,71.482C4.25,71.774 4.487,72.01 4.778,72.01C5.069,72.01 5.306,71.774 5.306,71.482C5.306,71.109 5.459,70.77 5.705,70.523C5.952,70.277 6.291,70.124 6.664,70.124C7.037,70.124 7.377,70.277 7.623,70.523C7.87,70.77 8.023,71.109 8.023,71.482L8.025,71.482L8.018,76.913C8.018,76.916 8.016,76.919 8.016,76.923C8.016,77.362 8.194,77.759 8.482,78.046C8.769,78.334 9.166,78.512 9.605,78.512C10.044,78.512 10.441,78.334 10.728,78.046C11.016,77.759 11.194,77.362 11.194,76.923C11.194,76.632 10.957,76.395 10.666,76.395C10.375,76.395 10.138,76.632 10.138,76.923C10.138,77.07 10.079,77.204 9.982,77.3C9.886,77.397 9.752,77.456 9.605,77.456C9.458,77.456 9.324,77.397 9.228,77.3C9.131,77.204 9.072,77.07 9.072,76.923C9.072,76.919 9.07,76.916 9.07,76.913L9.076,71.482L9.078,71.482C9.078,71.109 9.231,70.77 9.478,70.523C9.724,70.277 10.064,70.124 10.437,70.124C10.81,70.124 11.15,70.277 11.396,70.523C11.642,70.77 11.796,71.109 11.796,71.482C11.796,71.774 12.032,72.01 12.323,72.01C12.615,72.01 12.851,71.774 12.851,71.482C12.851,71.109 13.004,70.77 13.25,70.523C13.497,70.277 13.836,70.124 14.209,70.124L14.21,70.124C14.555,70.124 14.871,70.253 15.111,70.466C15.353,70.681 15.519,70.982 15.559,71.321L15.56,71.32C15.591,71.588 15.823,71.792 16.097,71.784C16.387,71.776 16.616,71.535 16.608,71.244C16.545,69.068 15.62,67.108 14.164,65.694C12.711,64.283 10.729,63.414 8.546,63.414Z" style="fill:white;"/>
        </g>
    </g>
</svg>
