<?xml version="1.0" encoding="UTF-8" standalone="no"?>
<!DOCTYPE svg PUBLIC "-//W3C//DTD SVG 1.1//EN" "http://www.w3.org/Graphics/SVG/1.1/DTD/svg11.dtd">
<svg width="100%" height="100%" viewBox="0 0 64 79" version="1.1" xmlns="http://www.w3.org/2000/svg" xmlns:xlink="http://www.w3.org/1999/xlink" xml:space="preserve" xmlns:serif="http://www.serif.com/" style="fill-rule:evenodd;clip-rule:evenodd;stroke-linejoin:round;stroke-miterlimit:2;">
    <g transform="matrix(1,0,0,1,-134.383,-256.242)">
        <g transform="matrix(4.16667,0,0,4.16667,0,0)">
            <path d="M39.881,66.148C37.775,66.148 35.867,67.001 34.487,68.382C33.113,69.756 32.261,71.651 32.253,73.746L32.252,73.776L32.253,73.776C32.253,74.074 32.494,74.315 32.792,74.315C33.089,74.315 33.331,74.074 33.331,73.776C33.331,73.437 33.47,73.128 33.694,72.905C33.918,72.681 34.226,72.542 34.565,72.542C34.904,72.542 35.213,72.681 35.436,72.904C35.66,73.128 35.799,73.437 35.799,73.776C35.799,74.074 36.041,74.315 36.338,74.315C36.636,74.315 36.877,74.074 36.877,73.776C36.877,73.437 37.017,73.128 37.24,72.905C37.464,72.681 37.773,72.542 38.112,72.542C38.451,72.542 38.76,72.681 38.983,72.904C39.207,73.128 39.346,73.437 39.346,73.776L39.348,73.776L39.342,78.843C39.341,78.859 39.34,78.875 39.34,78.891C39.34,79.313 39.512,79.697 39.791,79.977L39.79,79.978C40.068,80.256 40.452,80.428 40.877,80.428C41.3,80.428 41.684,80.255 41.963,79.975C42.241,79.697 42.413,79.314 42.413,78.891C42.413,78.593 42.172,78.352 41.874,78.352C41.577,78.352 41.335,78.593 41.335,78.891C41.335,79.019 41.284,79.134 41.201,79.217C41.119,79.299 41.005,79.349 40.877,79.349C40.75,79.349 40.635,79.298 40.552,79.215L40.551,79.216L40.55,79.215C40.469,79.134 40.418,79.019 40.418,78.891C40.418,78.875 40.417,78.86 40.416,78.845L40.423,73.776L40.425,73.776C40.425,73.437 40.564,73.128 40.788,72.904C41.011,72.681 41.32,72.542 41.659,72.542C41.998,72.542 42.306,72.681 42.53,72.905C42.754,73.128 42.893,73.437 42.893,73.776C42.893,74.074 43.135,74.315 43.432,74.315C43.73,74.315 43.971,74.074 43.971,73.776C43.971,73.437 44.111,73.128 44.334,72.904C44.558,72.681 44.867,72.542 45.206,72.542C45.52,72.542 45.807,72.659 46.025,72.852C46.245,73.048 46.395,73.321 46.432,73.629L46.433,73.629C46.465,73.902 46.701,74.11 46.981,74.103C47.278,74.095 47.512,73.847 47.504,73.551C47.444,71.493 46.57,69.64 45.193,68.303C43.819,66.969 41.945,66.148 39.881,66.148Z" style="fill:white;"/>
        </g>
        <g transform="matrix(4.16667,0,0,4.16667,0,0)">
            <path d="M37.534,62.035L37.53,65.22C37.53,65.517 37.771,65.757 38.067,65.757C38.364,65.757 38.604,65.517 38.604,65.22L38.608,62.035C38.608,61.739 38.368,61.498 38.071,61.498C37.775,61.498 37.534,61.739 37.534,62.035Z" style="fill:white;"/>
        </g>
        <g transform="matrix(4.16667,0,0,4.16667,0,0)">
            <path d="M33.929,62.346L33.925,67.036C33.925,67.332 34.165,67.573 34.462,67.573C34.759,67.573 34.999,67.332 34.999,67.036L35.004,62.346C35.004,62.049 34.763,61.809 34.466,61.809C34.17,61.809 33.929,62.049 33.929,62.346Z" style="fill:white;"/>
        </g>
        <g transform="matrix(4.16667,0,0,4.16667,0,0)">
            <path d="M35.775,64.139L35.768,65.637C35.767,65.933 36.007,66.175 36.303,66.176C36.6,66.177 36.841,65.938 36.842,65.641L36.849,64.143C36.85,63.846 36.61,63.605 36.314,63.604C36.017,63.603 35.776,63.842 35.775,64.139Z" style="fill:white;"/>
        </g>
        <g transform="matrix(4.16667,0,0,4.16667,0,0)">
            <path d="M39.833,62.862C39.537,62.863 39.297,63.104 39.298,63.401L39.305,64.899C39.306,65.195 39.547,65.435 39.844,65.434C40.14,65.433 40.38,65.191 40.379,64.894L40.372,63.397C40.371,63.1 40.13,62.86 39.833,62.862Z" style="fill:white;"/>
        </g>
        <g transform="matrix(4.16667,0,0,4.16667,0,0)">
            <path d="M41.689,61.498L41.688,61.499L41.688,61.498C41.687,61.498 41.686,61.499 41.684,61.499C41.683,61.499 41.682,61.498 41.681,61.498C41.384,61.498 41.144,61.739 41.144,62.035L41.148,65.22C41.148,65.517 41.388,65.757 41.685,65.757L41.692,65.757C41.988,65.757 42.229,65.517 42.229,65.22L42.225,62.529L42.226,62.035C42.226,61.739 41.985,61.498 41.689,61.498Z" style="fill:white;"/>
        </g>
        <g transform="matrix(4.16667,0,0,4.16667,0,0)">
            <path d="M45.292,61.809C44.996,61.809 44.755,62.049 44.755,62.346L44.76,67.036C44.76,67.332 45,67.573 45.297,67.573C45.593,67.573 45.834,67.332 45.834,67.036L45.829,62.346C45.829,62.049 45.589,61.809 45.292,61.809Z" style="fill:white;"/>
        </g>
        <g transform="matrix(4.16667,0,0,4.16667,0,0)">
            <path d="M43.445,63.604C43.149,63.605 42.909,63.846 42.91,64.143L42.917,65.641C42.918,65.938 43.159,66.177 43.456,66.176C43.752,66.175 43.992,65.933 43.991,65.637L43.984,64.139C43.983,63.842 43.742,63.603 43.445,63.604Z" style="fill:white;"/>
        </g>
    </g>
</svg>
