<?xml version="1.0" encoding="UTF-8" standalone="no"?>
<!DOCTYPE svg PUBLIC "-//W3C//DTD SVG 1.1//EN" "http://www.w3.org/Graphics/SVG/1.1/DTD/svg11.dtd">
<svg width="100%" height="100%" viewBox="0 0 61 59" version="1.1" xmlns="http://www.w3.org/2000/svg" xmlns:xlink="http://www.w3.org/1999/xlink" xml:space="preserve" xmlns:serif="http://www.serif.com/" style="fill-rule:evenodd;clip-rule:evenodd;stroke-linejoin:round;stroke-miterlimit:2;">
    <g transform="matrix(1,0,0,1,-396.958,-5.44583)">
        <g transform="matrix(4.16667,0,0,4.16667,0,0)">
            <path d="M96.645,8.476L106.173,8.476C106.195,8.478 106.218,8.479 106.241,8.479C107.231,8.479 108.128,8.077 108.777,7.428C109.426,6.779 109.827,5.883 109.827,4.893C109.827,3.903 109.426,3.006 108.777,2.357C108.128,1.709 107.231,1.307 106.241,1.307C105.251,1.307 104.355,1.709 103.706,2.357C103.057,3.006 102.656,3.903 102.656,4.893C102.656,5.323 103.004,5.672 103.434,5.672C103.864,5.672 104.213,5.323 104.213,4.893C104.213,4.333 104.44,3.826 104.807,3.459C105.174,3.092 105.681,2.865 106.241,2.865C106.801,2.865 107.309,3.092 107.676,3.459C108.042,3.826 108.27,4.333 108.27,4.893C108.27,5.453 108.042,5.96 107.676,6.327C107.309,6.694 106.801,6.921 106.241,6.921C106.218,6.921 106.195,6.922 106.173,6.924L96.645,6.924C96.217,6.924 95.869,7.271 95.869,7.7C95.869,8.128 96.217,8.476 96.645,8.476Z" style="fill:white;"/>
        </g>
        <g transform="matrix(4.16667,0,0,4.16667,0,0)">
            <path d="M96.046,10.902L103.453,10.902C103.476,10.904 103.499,10.905 103.522,10.905C103.911,10.905 104.263,11.063 104.517,11.318C104.772,11.572 104.93,11.924 104.93,12.313C104.93,12.702 104.772,13.054 104.517,13.309C104.263,13.563 103.911,13.721 103.522,13.721C103.133,13.721 102.781,13.563 102.526,13.309C102.271,13.054 102.114,12.702 102.114,12.313C102.114,11.883 101.765,11.534 101.335,11.534C100.905,11.534 100.556,11.883 100.556,12.313C100.556,13.132 100.888,13.873 101.425,14.41C101.962,14.946 102.703,15.278 103.522,15.278C104.341,15.278 105.082,14.946 105.619,14.41C106.155,13.873 106.487,13.132 106.487,12.313C106.487,11.494 106.155,10.753 105.619,10.216C105.082,9.68 104.341,9.348 103.522,9.348C103.499,9.348 103.476,9.349 103.453,9.351L96.046,9.351C95.618,9.351 95.27,9.698 95.27,10.126C95.27,10.555 95.618,10.902 96.046,10.902Z" style="fill:white;"/>
        </g>
    </g>
</svg>
