<?xml version="1.0" encoding="UTF-8" standalone="no"?>
<!-- Generator: Adobe Illustrator 17.1.0, SVG Export Plug-In . SVG Version: 6.00 Build 0)  -->

<svg
   xmlns:dc="http://purl.org/dc/elements/1.1/"
   xmlns:cc="http://creativecommons.org/ns#"
   xmlns:rdf="http://www.w3.org/1999/02/22-rdf-syntax-ns#"
   xmlns:svg="http://www.w3.org/2000/svg"
   xmlns="http://www.w3.org/2000/svg"
   xmlns:sodipodi="http://sodipodi.sourceforge.net/DTD/sodipodi-0.dtd"
   xmlns:inkscape="http://www.inkscape.org/namespaces/inkscape"
   version="1.1"
   id="Capa_1"
   x="0px"
   y="0px"
   viewBox="0 0 263.00057 202.80959"
   xml:space="preserve"
   sodipodi:docname="home.svg"
   width="263.00058"
   height="202.8096"
   inkscape:version="0.92.0 r15299"><metadata
   id="metadata39"><rdf:RDF><cc:Work
       rdf:about=""><dc:format>image/svg+xml</dc:format><dc:type
         rdf:resource="http://purl.org/dc/dcmitype/StillImage" /><dc:title /></cc:Work></rdf:RDF></metadata><defs
   id="defs37"><filter
     style="color-interpolation-filters:sRGB"
     inkscape:label="Drop Shadow"
     id="filter51"><feFlood
       flood-opacity="0.498039"
       flood-color="rgb(0,0,0)"
       result="flood"
       id="feFlood41" /><feComposite
       in="flood"
       in2="SourceGraphic"
       operator="in"
       result="composite1"
       id="feComposite43" /><feGaussianBlur
       in="composite1"
       stdDeviation="3"
       result="blur"
       id="feGaussianBlur45" /><feOffset
       dx="6"
       dy="6"
       result="offset"
       id="feOffset47" /><feComposite
       in="SourceGraphic"
       in2="offset"
       operator="over"
       result="composite2"
       id="feComposite49" /></filter></defs><sodipodi:namedview
   pagecolor="#ffffff"
   bordercolor="#666666"
   borderopacity="1"
   objecttolerance="10"
   gridtolerance="10"
   guidetolerance="10"
   inkscape:pageopacity="0"
   inkscape:pageshadow="2"
   inkscape:window-width="1920"
   inkscape:window-height="1027"
   id="namedview35"
   showgrid="false"
   inkscape:zoom="1.0768044"
   inkscape:cx="131.50064"
   inkscape:cy="101.4043"
   inkscape:window-x="-8"
   inkscape:window-y="-8"
   inkscape:window-maximized="1"
   inkscape:current-layer="Capa_1"
   fit-margin-top="0"
   fit-margin-left="0"
   fit-margin-right="0"
   fit-margin-bottom="0" />
<path
   d="m 240.49214,87.964801 -28.094,-66.483 c -1.173,-2.776 -3.895,-4.581 -6.909,-4.581 H 57.511136 c -3.014,0 -5.735,1.805 -6.909,4.581 l -28.094,66.483 c -0.979,2.315 -0.731,4.968 0.658,7.063 1.39,2.096 3.737,3.355 6.251,3.355 h 9.134 V 178.4088 c 0,4.143 3.358,7.5 7.5,7.5 H 216.95014 c 4.142,0 7.5,-3.357 7.5,-7.5 V 98.382801 h 9.133 c 2.514,0 4.861,-1.26 6.251,-3.355 1.39,-2.095 1.637,-4.748 0.658,-7.063 z m -65.541,70.636999 v -47.082 h 25.897 v 47.082 z m -111.155004,-0.291 v -46.501 h 25.712 v 46.501 z m 40.713004,-46.501 h 25.713 v 46.501 h -25.713 z"
   id="path2"
   style="filter:url(#filter51);fill:#000000"
   inkscape:connector-curvature="0" />
<g
   id="g4"
   transform="translate(21.917136,-8.1781993)">
</g>
<g
   id="g6"
   transform="translate(21.917136,-8.1781993)">
</g>
<g
   id="g8"
   transform="translate(21.917136,-8.1781993)">
</g>
<g
   id="g10"
   transform="translate(21.917136,-8.1781993)">
</g>
<g
   id="g12"
   transform="translate(21.917136,-8.1781993)">
</g>
<g
   id="g14"
   transform="translate(21.917136,-8.1781993)">
</g>
<g
   id="g16"
   transform="translate(21.917136,-8.1781993)">
</g>
<g
   id="g18"
   transform="translate(21.917136,-8.1781993)">
</g>
<g
   id="g20"
   transform="translate(21.917136,-8.1781993)">
</g>
<g
   id="g22"
   transform="translate(21.917136,-8.1781993)">
</g>
<g
   id="g24"
   transform="translate(21.917136,-8.1781993)">
</g>
<g
   id="g26"
   transform="translate(21.917136,-8.1781993)">
</g>
<g
   id="g28"
   transform="translate(21.917136,-8.1781993)">
</g>
<g
   id="g30"
   transform="translate(21.917136,-8.1781993)">
</g>
<g
   id="g32"
   transform="translate(21.917136,-8.1781993)">
</g>
</svg>