<?xml version="1.0" encoding="UTF-8" standalone="no"?>
<!-- Created with Inkscape (http://www.inkscape.org/) -->

<svg
   xmlns:dc="http://purl.org/dc/elements/1.1/"
   xmlns:cc="http://creativecommons.org/ns#"
   xmlns:rdf="http://www.w3.org/1999/02/22-rdf-syntax-ns#"
   xmlns:svg="http://www.w3.org/2000/svg"
   xmlns="http://www.w3.org/2000/svg"
   xmlns:sodipodi="http://sodipodi.sourceforge.net/DTD/sodipodi-0.dtd"
   xmlns:inkscape="http://www.inkscape.org/namespaces/inkscape"
   version="1.1"
   id="svg4497"
   width="829.8667"
   height="134.39999"
   viewBox="0 0 829.8667 134.39999"
   sodipodi:docname="whiteLogo.svg"
   inkscape:version="0.92.0 r15299">
  <metadata
     id="metadata4503">
    <rdf:RDF>
      <cc:Work
         rdf:about="">
        <dc:format>image/svg+xml</dc:format>
        <dc:type
           rdf:resource="http://purl.org/dc/dcmitype/StillImage" />
        <dc:title></dc:title>
      </cc:Work>
    </rdf:RDF>
  </metadata>
  <defs
     id="defs4501" />
  <sodipodi:namedview
     pagecolor="#ffffff"
     bordercolor="#666666"
     borderopacity="1"
     objecttolerance="10"
     gridtolerance="10"
     guidetolerance="10"
     inkscape:pageopacity="0"
     inkscape:pageshadow="2"
     inkscape:window-width="1920"
     inkscape:window-height="1027"
     id="namedview4499"
     showgrid="false"
     inkscape:zoom="1.956359"
     inkscape:cx="476.39423"
     inkscape:cy="21.199557"
     inkscape:window-x="-8"
     inkscape:window-y="-8"
     inkscape:window-maximized="1"
     inkscape:current-layer="svg4497"
     inkscape:pagecheckerboard="true" />
  <path
     style="fill:#ffffff;stroke-width:1.0666666"
     d="m 456.44362,124.25747 c -6.45334,-3.15353 -12.45334,-5.7589 -13.33334,-5.78973 -0.88,-0.0308 -2.32,-0.52135 -3.2,-1.09006 -1.11598,-0.7212 7.20373,-1.5811 12.50169,-1.59249 l 3.61993,0.52586 5.96892,5.04994 c 14.87448,12.58439 10.95992,10.96784 -5.5572,2.89651 z m -440.817425,1.13539 c -6.5466702,-0.63769 -6.8384482,-0.75051 -2.368067,-0.91567 l 13.916001,-0.69951 -2.313025,-3.12853 c -1.875678,-2.53699 -2.1789,-3.9673 -1.603675,-7.56455 2.431614,-15.206471 20.873026,-32.254371 54.030462,-49.947671 11.059661,-5.9016 31.520539,-14.34874 33.310589,-13.75206 0.62092,0.20698 -6.26427,4.43003 -15.300428,9.38457 -49.251917,27.00489 -74.989598,51.031801 -66.744335,62.307881 1.279426,1.74972 2.444708,1.89682 10.254496,1.29458 7.351926,-0.56694 9.916858,-1.29787 15.48863,-4.41378 17.301647,-9.67563 41.560349,-31.971111 56.643167,-52.059121 10.38443,-13.83049 16.23245,-25.1436 17.83576,-34.50372 1.07615,-6.28252 0.98574,-7.37119 -0.90135,-10.85337 -2.91123,-5.37199 -7.77188,-7.89232 -16.4134,-8.51061 -13.479218,-0.96444 -33.166892,4.54653 -56.08409,15.69904 -19.707533,9.59054 -37.975989,22.11037 -43.819204,30.0304 -3.1618601,4.28566 -3.2625551,7.26254 -0.370046,10.93977 2.693924,3.42477 1.159711,3.75586 -1.9022201,0.41051 -3.454302,-3.77404 -3.84856,-6.66116 -1.598329,-11.70442 C 13.311502,44.801169 44.210396,25.580939 75.643597,15.135239 91.821722,9.7590192 103.32733,8.0863592 113.95887,9.5650692 c 16.55509,2.3025998 24.00105,8.9515198 24.06131,21.4856898 0.11303,23.51414 -31.07447,62.03473 -67.808873,83.752701 -4.379366,2.58915 -8.508659,4.70755 -9.176208,4.70755 -0.667548,0 -0.95012,0.26361 -0.627937,0.5858 0.322184,0.32217 10.122184,-0.14406 21.77778,-1.03609 51.856558,-3.96868 119.973728,-7.71686 159.591998,-8.78161 14.52,-0.39023 26.4,-0.93452 26.4,-1.20952 0,-0.27501 -1.72219,-2.40628 -3.82709,-4.73615 l -3.8271,-4.23613 5.16043,-3.476151 c 4.84964,-3.2668 5.34509,-4.04731 8.2266,-12.95981 1.68639,-5.21602 7.7906,-20.53305 13.5649,-34.03786 10.75153,-25.14546 14.71127,-37.05156 13.43165,-40.3861898 -0.56959,-1.48434 -1.74317,-1.82506 -5.49218,-1.59451 -5.62947,0.34618 -7.02091,-0.52555 -3.68693,-2.30985 3.6618,-1.95973 13.48701,-0.60524 16.56157,2.28316 5.28149,4.9616998 4.90546,6.6092198 -7.27954,31.8949198 -10.2466,21.26323 -20.24811,43.87309 -19.66517,44.45602 0.72692,0.72693 14.49516,-14.61783 22.90048,-25.52268 8.02613,-10.41291 10.14488,-11.83594 13.99503,-9.3996 1.27913,0.80943 0.99288,2.15906 -1.7499,8.25034 -9.70346,21.54981 -13.48421,40.75296 -9.09154,46.177671 l 1.88788,2.33143 2.91212,-2.29068 c 2.74167,-2.15659 2.91213,-2.17376 2.91213,-0.29326 0,4.5197 -5.87318,6.0882 -10.54476,2.81609 -5.88734,-4.12366 -8.29581,-17.625411 -5.06124,-28.373071 l 1.46068,-4.85346 -12.0286,10.69967 c -11.26715,10.02233 -12.13615,11.08294 -13.72735,16.753911 -0.93431,3.32983 -1.69874,6.55031 -1.69874,7.15664 0,0.7319 15.68376,1.3241 46.66667,1.76206 25.66667,0.36281 52.90667,1.15124 60.53334,1.75205 19.14433,1.50816 60.19882,5.58587 59.2,6.44353 -0.45503,0.39072 -73.86667,0.74201 -141.33334,2.06509 -112.90057,2.21407 -239.363787,5.07203 -258.666678,5.84564 -4.4,0.17634 -19.921823,-0.13379 -24.284067,0.10445 z M 269.24361,102.44435 c 0,-3.371451 -0.6104,-3.793281 -3.15759,-2.18212 -1.33301,0.84317 -1.27073,1.30218 0.43199,3.18367 2.57978,2.85062 2.7256,2.79704 2.7256,-1.00155 z m 195.84243,19.81411 c -0.55842,-1.03119 -2.00966,-3.29069 -3.35319,-4.36898 -1.79744,-1.4426 -3.60395,-1.57847 -4.75886,-1.57847 -1.97138,0 -2.40941,-2.04014 -7.6605,-6.2378 -7.7366,-6.18456 -12.52237,-10.828861 -11.1587,-10.828861 0.38967,0 5.20237,1.920001 10.69489,4.266671 5.49254,2.34666 10.52812,4.26666 11.19018,4.26666 0.70389,0 1.20686,-1.88245 1.21123,-4.53333 0.0107,-6.255251 3.50892,-20.271051 7.89489,-31.627781 6.03188,-15.61851 26.81084,-55.60717 32.07433,-61.7263398 2.29679,-2.67017 2.6151,-2.73932 6.8163,-1.48061 2.42386,0.72621 4.40701,1.7285998 4.40701,2.2275398 0,0.49894 -4.22459,8.03967 -9.38798,16.75718 -5.16339,8.71751 -10.95593,18.73002 -12.87231,22.25002 l -3.48434,6.4 4.01275,-4.8 c 9.91777,-11.86347 23.42981,-24.19891 30.16891,-27.54183 8.34232,-4.1382 16.92588,-4.69526 20.30347,-1.31767 6.08014,6.08014 2.57209,22.82542 -11.04724,52.73267 l -2.85672,6.27318 5.11506,-4.30468 c 5.8051,-4.8854 19.11192,-18.52552 32.1742,-32.98008 8.62485,-9.54414 13.62394,-13.8674 14.74218,-12.74917 0.6798,0.6798 -20.27949,23.39063 -42.11247,45.63176 -9.00431,9.17263 -17.17788,18.29263 -18.16349,20.26667 -1.50769,3.019661 -2.44899,3.643001 -5.93259,3.928571 -2.27731,0.18669 -4.63589,-0.15589 -5.2413,-0.7613 -0.75654,-0.756541 2.75784,-9.034491 11.23891,-26.472761 13.35032,-27.45012 17.13128,-37.40045 16.61078,-43.71449 -0.31771,-3.85397 -0.53651,-4.07423 -4.36117,-4.39018 -11.55174,-0.9543 -29.01923,14.01231 -46.77409,40.0773 -11.07815,16.26326 -16.88764,29.9569 -16.9199,39.882281 -0.0123,3.76839 0.15027,3.93219 5.054,5.09325 2.78667,0.65981 92.39648,1.85611 97.96981,2.65845 l -32.10314,1.68741 -50.78446,-0.11401 c -14.10244,-0.0317 -20.41739,1.09965 -19.6711,2.93388 0.32389,0.79608 1.73091,9.52587 2.08702,10.40587 0.55612,2.4759 -2.66507,-1.67332 -5.12237,-6.21102 z m 73.49091,-7.01411 c -4.41459,-0.48839 -0.44376,-0.78606 12.8,-0.95954 14.0377,-0.18389 18.59232,-0.54594 16.93989,-1.34657 -2.8055,-1.3593 -6.38522,-7.60519 -7.35675,-12.83603 -1.52517,-8.211711 3.59627,-33.848911 10.14862,-50.802461 5.53973,-14.33352 13.41044,-23.64045 20.00158,-23.6514 1.32,-0.002 2.4,0.42097 2.4,0.94036 0,0.51939 -3.80141,8.38926 -8.44758,17.4886 -11.41988,22.36542 -15.16948,34.06418 -15.80139,49.30038 -0.53355,12.864481 0.50532,17.599991 3.86108,17.599991 2.89046,0 6.7269,-4.93694 11.26344,-14.494381 4.00977,-8.44767 5.62046,-9.63878 4.42627,-3.27326 -1.17843,6.28161 -6.86413,16.381621 -10.54704,18.735641 l -3.42145,2.18691 14.93333,-0.51875 c 8.21334,-0.28532 29.70714,-0.81064 47.76401,-1.16739 l 32.83065,-0.64863 -4.83065,-5.16437 c -2.65687,-2.84041 -4.82186,-5.54494 -4.81109,-6.01007 0.0108,-0.46513 2.18464,-2.285691 4.83082,-4.045691 4.61604,-3.07017 4.99857,-3.74097 9.42836,-16.53334 2.53942,-7.33333 8.09891,-21.25333 12.35441,-30.93333 11.69524,-26.60314 14.69864,-35.98162 12.71178,-39.6940998 -0.97535,-1.82244 -1.81062,-2.0183 -5.95619,-1.39664 -3.67081,0.55047 -4.71371,0.39891 -4.36909,-0.63494 0.64355,-1.93066 6.06005,-3.1684 10.447,-2.38728 8.61944,1.53475 11.67973,5.1809898 10.26891,12.2350898 -0.3568,1.784 -6.08436,14.84634 -12.72791,29.02742 -15.98722,34.12576 -17.20044,36.87991 -16.53766,37.54268 0.86604,0.86605 12.66814,-12.15135 22.13367,-24.41287 7.95516,-10.305 8.69053,-10.96272 11.75425,-10.51306 1.7975,0.26382 3.51885,0.88525 3.82522,1.38096 0.30636,0.49571 -0.84097,3.68037 -2.54963,7.07702 -5.67351,11.27836 -11.07808,29.87234 -11.05578,38.0365 0.0248,9.090051 1.73934,11.620591 5.98742,8.837151 3.30834,-2.16771 3.83484,-2.19368 3.83484,-0.18919 0,0.86647 -1.15456,2.33191 -2.56568,3.2565 -5.59493,3.66594 -13.06777,-3.04085 -15.02748,-13.486981 -0.64338,-3.42954 0.76854,-14.62152 2.37159,-18.799 0.36324,-0.94659 -4.6858,3.00437 -11.22008,8.7799 -9.74147,8.6103 -12.1756,11.36698 -13.51944,15.31091 -1.77909,5.221351 -2.07588,9.557791 -0.79233,11.577011 0.62786,0.98773 11.09752,-1.83529 42.75393,-2.59185 40.8282,-0.97576 93.54462,-3.16853 90.49266,-2.48059 -2.26598,0.51078 -97.20283,8.4006 -131.4265,9.65508 -31.28453,1.14677 -127.24426,1.14927 -137.60001,0.003 z m 130.66667,-12.16681 c 0,-3.108321 -0.30833,-3.552841 -2.13333,-3.07559 -2.59565,0.67878 -2.71093,2.16951 -0.36801,4.75841 2.36577,2.61414 2.50134,2.52293 2.50134,-1.68282 z m -432.54957,3.61556 c -1.37604,-1.52053 -1.91183,-3.68926 -1.82737,-7.396861 0.1516,-6.65595 1.85293,-12.33322 8.53051,-28.46618 l 5.35913,-12.94762 -3.08968,-2.28431 c -3.56895,-2.63863 -4.50725,-8.11867 -1.22303,-7.14297 7.51204,2.23172 7.21505,2.3772 10.38818,-5.08887 1.62831,-3.83127 3.0171,-8.78604 3.08619,-11.01061 0.11974,-3.85494 -0.0244,-4.03468 -3.07437,-3.83205 l -3.2,0.2126 2.51816,-2.07927 c 3.22275,-2.66105 5.56434,-2.62711 9.07132,0.13148 2.40484,1.89165 2.81052,3.02703 2.81052,7.8659 0,3.11032 -0.69747,7.63199 -1.54994,10.04815 -1.54645,4.38306 -1.54356,4.39462 1.27666,5.10245 2.84312,0.71358 12.94003,-0.67618 16.68549,-2.29663 1.46702,-0.63469 1.88279,-0.48229 1.53452,0.56251 -0.79297,2.37892 -12.41944,8.19115 -18.95856,9.47765 l -6.13106,1.20621 -6.04001,12.62504 c -6.84799,14.31388 -11.35044,26.75688 -11.35044,31.368161 0,2.9489 0.21586,3.10467 3.73334,2.69402 2.42276,-0.28284 3.73333,0.0106 3.73333,0.83585 0,3.21587 -9.45899,3.53572 -12.28289,0.41535 z m 359.10709,-0.55743 c -4.49248,-5.71128 -2.11259,-22.209901 6.24511,-43.294181 5.42425,-13.68398 5.76222,-14.09655 10.97455,-13.39743 2.27278,0.30484 4.40561,0.82753 4.7396,1.16152 0.334,0.334 -1.33459,4.81436 -3.70799,9.95635 -6.43939,13.95108 -11.18007,28.73428 -11.75955,36.67064 -0.65092,8.914731 0.50071,9.797551 6.89833,5.288081 2.63944,-1.86044 4.59303,-2.758711 4.34131,-1.99613 -0.70603,2.13888 -8.43477,7.15825 -12.13136,7.87862 -2.74651,0.53522 -3.69865,0.1497 -5.6,-2.26747 z m -378.0698,-0.508 c -3.72552,-2.93049 -5.25498,-8.223611 -5.18277,-17.936451 0.10698,-14.39392 8.23634,-37.88899 13.57314,-39.22845 3.48922,-0.87573 8.26127,0.40437 7.55352,2.02625 -0.30929,0.70877 -2.24688,5.12867 -4.30575,9.822 -7.60442,17.33481 -11.16769,34.37448 -8.75498,41.866661 0.92501,2.87247 4.40103,3.17838 7.21178,0.63468 1.82656,-1.65301 1.95066,-1.63266 1.95066,0.32 0,4.87443 -7.14054,6.35363 -12.0456,2.49531 z m 144.66784,0.58904 c -4.15522,-2.94046 -6.07159,-10.155351 -5.32588,-20.051271 0.36421,-4.83326 0.96683,-10.22775 1.33916,-11.98775 0.42735,-2.0201 -2.60603,1.90585 -8.2268,10.64751 -11.3013,17.576291 -15.45573,21.885821 -21.09822,21.885821 -3.42222,0 -4.74077,-0.66583 -7.46667,-3.77045 -2.05223,-2.33738 -3.31049,-4.929901 -3.31049,-6.820981 0,-4.74609 3.89751,-16.2417 10.78399,-31.80709 5.07316,-11.46677 6.08382,-14.64662 5.1875,-16.32142 -0.91139,-1.70294 -0.76798,-2.07581 0.79098,-2.05663 2.02526,0.0249 10.97086,3.80135 10.97086,4.63141 0,0.27087 -3.81842,8.27173 -8.48538,17.7797 -9.31527,18.97796 -11.83405,27.06012 -9.81455,31.49246 1.21897,2.675331 1.29371,2.691231 4.30114,0.914711 4.60282,-2.718961 11.14474,-11.467251 24.13212,-32.271091 12.46364,-19.96488 14.66149,-22.11859 20.06117,-19.65834 l 2.5471,1.16055 -3.51758,7.29692 c -9.00105,18.67189 -13.42366,39.84414 -9.55594,45.747011 1.74816,2.66805 1.90696,2.70356 4.49792,1.0059 3.06856,-2.01061 4.56763,-1.28648 2.88824,1.39516 -1.49811,2.39219 -7.77806,2.85466 -10.69867,0.78787 z m 22.14434,0.16744 c -5.84265,-2.04723 -8.10326,-6.08196 -8.08038,-14.421811 0.0158,-5.74666 0.67088,-8.50091 3.40043,-14.29618 3.80762,-8.08422 8.55118,-15.30787 14.04666,-21.3907 7.80936,-8.64403 18.42238,-10.86419 24.55391,-5.13648 3.78897,3.53943 4.21592,6.94646 1.56939,12.52361 -3.15338,6.64527 -16.10663,15.23617 -23.05658,15.29167 -4.42448,0.0353 -3.53273,-1.3948 2.13333,-3.42128 9.30971,-3.32965 17.23628,-12.34719 17.30991,-19.69234 0.0546,-5.45004 -4.43673,-3.76908 -13.51521,5.05829 -11.82604,11.49892 -21.04527,29.8645 -18.84416,37.53935 1.39717,4.871621 5.13764,5.990851 11.67619,3.493761 3.69867,-1.41253 8.45531,-5.229681 17.68315,-14.190521 6.9429,-6.74202 12.62345,-11.66096 12.62345,-10.93098 0,1.9879 -13.16345,18.45642 -18.37888,22.99343 -8.42791,7.331641 -15.3524,9.302311 -23.12121,6.580181 z m 242.56677,-0.10248 c -5.99583,-2.64663 -7.46667,-5.37983 -7.46667,-13.875031 0,-6.69801 0.50142,-8.6888 3.94138,-15.64846 5.33342,-10.7905 13.88558,-21.82828 19.83711,-25.60263 7.50155,-4.75734 15.35846,-3.96132 20.22151,2.04874 3.06592,3.78904 0.21277,11.90673 -4.18489,11.90673 -1.77471,0 -2.06279,-0.46153 -1.498,-2.4 1.60585,-5.51163 1.8668,-9.09377 0.71433,-9.80603 -1.94624,-1.20285 -8.03798,3.24745 -15.54686,11.35774 -15.70923,16.96742 -21.37373,39.248291 -9.97815,39.248291 5.46199,0 11.79581,-4.248941 23.54643,-15.795691 6.29906,-6.18979 11.74878,-10.95823 12.11048,-10.59653 1.02251,1.02251 -10.73314,16.06312 -17.1101,21.8913 -9.30243,8.501901 -16.7855,10.715041 -24.58657,7.271571 z m 99.00236,-0.0652 c -9.80774,-4.26568 -8.95495,-21.032281 1.93589,-38.060971 11.4218,-17.85886 24.21235,-24.61486 32.84658,-17.34963 5.95756,5.01296 3.80171,14.66777 -4.72795,21.17366 -5.32532,4.06182 -12.20568,6.9527 -16.52354,6.94259 -3.52208,-0.008 -3.28535,-0.23326 4.18379,-3.97658 8.87978,-4.45028 13.68747,-9.52636 14.65198,-15.46994 0.92337,-5.69012 -0.054,-7.58299 -3.08661,-5.97806 -12.38698,6.5554 -27.10297,27.59701 -28.26526,40.41499 -0.63248,6.975021 1.07158,9.598461 6.23478,9.598461 5.64165,0 11.93155,-4.265741 22.96871,-15.577111 5.95139,-6.09926 11.11139,-11.08956 11.46667,-11.08956 2.65456,0 -5.5586,11.5707 -14.87078,20.94996 -9.27217,9.338971 -18.23418,12.153861 -26.81426,8.422131 z m 46.91661,-0.042 c -5.90725,-4.1377 -5.86762,-18.109451 0.11498,-40.530111 5.11275,-19.16084 9.35859,-30.89549 16.61159,-45.91126 6.44134,-13.3353498 12.56356,-20.7554098 17.12513,-20.7554098 3.1979,0 8.74813,2.58987 11.02271,5.14346 5.02862,5.64543 -2.67125,20.0296398 -26.87336,50.2023698 -11.61799,14.48413 -12.38589,15.74195 -13.67539,22.4 -0.75142,3.87979 -1.38386,10.92243 -1.40541,15.65029 -0.0441,9.658241 1.36022,12.923541 5.13355,11.936801 3.02524,-0.79112 3.99304,0.92019 1.32724,2.34689 -2.95771,1.58291 -6.70702,1.38982 -9.38104,-0.48312 z m 21.47018,-61.330111 c 13.45071,-19.09411 20.87752,-32.56859 20.87752,-37.8781098 0,-2.83772 -3.9334,-1.68117 -7.79154,2.29097 -6.22907,6.4131398 -22.79133,38.8877898 -25.76572,50.5204698 -0.6638,2.59611 -0.60946,2.582 2.05406,-0.53333 1.50476,-1.76 6.28632,-8.24 10.62568,-14.4 z M 140.6515,104.5594 c -5.95772,-1.83121 -8.36016,-5.591201 -8.82463,-13.811181 -0.47417,-8.39156 1.36104,-15.14211 6.18406,-22.74722 2.7512,-4.33819 2.97875,-5.32013 2.02956,-8.75782 -1.38082,-5.00093 -0.37715,-9.3581 3.11034,-13.50275 7.54862,-8.97102 20.49211,-7.9322 26.69293,2.14234 2.20524,3.58289 4.0652,5.25799 6.6935,6.02825 2.63817,0.77316 3.73895,1.76893 4.00047,3.61883 0.32777,2.31856 0.0666,2.49331 -2.85372,1.90925 l -3.21452,-0.6429 -0.0403,7.71776 c -0.0771,14.7676 -6.76518,29.25172 -16.21505,35.116281 -5.21208,3.23461 -12.57413,4.46247 -17.56266,2.92916 z m 12.32544,-4.12896 c 4.24501,-3.052641 9.22686,-10.205441 11.76017,-16.884951 2.52665,-6.66198 3.88186,-17.59891 2.74296,-22.13662 -0.87374,-3.48125 -2.9233,-3.06685 -11.07633,2.23952 -5.5394,3.60531 -6.39103,5.7293 -2.29718,5.7293 1.13871,0 2.07038,0.5428 2.07038,1.20623 0,0.78267 -1.30998,0.99365 -3.73055,0.60085 -3.28199,-0.5326 -4.04507,-0.19303 -6.34634,2.8241 -4.39438,5.76133 -6.94127,12.56777 -6.96636,18.6173 -0.0193,4.65062 0.45716,6.12906 2.69692,8.368831 3.03931,3.0393 6.36933,2.87064 11.14633,-0.56456 z m 3.99653,-46.673221 c 4.97739,-2.37113 5.47173,-2.89926 4.46848,-4.77386 -1.24033,-2.31758 -5.14292,-4.139 -8.86822,-4.139 -4.92376,0 -10.69157,9.49947 -8.7848,14.46841 0.59209,1.54299 1.04717,1.4793 4.12675,-0.57761 1.90369,-1.27152 5.9797,-3.51159 9.05779,-4.97794 z m 23.47013,50.735021 c -1.02666,-0.59798 -1.86666,-1.70424 -1.86666,-2.45836 0,-0.75412 2.1039,-8.290261 4.67533,-16.746991 8.67433,-28.52747 9.99572,-38.50106 5.19133,-39.18339 -4.27143,-0.60664 -2.54138,-2.32581 2.34053,-2.32581 3.43329,0 5.54129,0.6888 7.64444,2.49785 4.03264,3.46873 3.79106,8.94212 -1.04767,23.73689 -2.12885,6.50911 -3.87063,12.20297 -3.87063,12.65302 0,0.45006 1.7579,-1.75557 3.90646,-4.9014 8.95888,-13.11729 19.80564,-25.56316 21.12705,-24.24175 0.29266,0.29267 -2.41297,4.33986 -6.01255,8.99376 -9.38214,12.13023 -20.81735,29.88065 -22.91896,35.57621 -2.85763,7.744391 -4.67837,9.015321 -9.16867,6.399971 z M 614.03468,37.587599 c -0.95521,-0.62638 0.99677,-3.21924 6.76909,-8.99156 l 8.11136,-8.11136 -0.69622,3.91317 c -0.38291,2.15225 -1.74901,6.07317 -3.03576,8.71317 -2.04505,4.19584 -2.80943,4.83504 -6.07286,5.0784 -2.05333,0.15311 -4.33736,-0.1177 -5.07561,-0.60182 z"
     id="path5052"
     inkscape:connector-curvature="0"
     sodipodi:nodetypes="cccccscccccssscssssscscsssssssssscsssscscscccsscscssccssscssssscsscsccsssssscscsccsscccssscsscsccssccsccccsccscscsscssssscccsscccsssccccsscsccsccsccssccscsccsscsccscccccsccsscsccccsscsccscscsccccsccssccsscscsscssccssccsccscccccccssscscscssscccscscsccsscssccssscccccsssscccscscsscccccsscccscsssscccscscccscccssccccsccsccccsssssssccccccsccccc" />
</svg>
