<?xml version="1.0" encoding="UTF-8" standalone="no"?>
<svg
   xmlns:dc="http://purl.org/dc/elements/1.1/"
   xmlns:cc="http://creativecommons.org/ns#"
   xmlns:rdf="http://www.w3.org/1999/02/22-rdf-syntax-ns#"
   xmlns:svg="http://www.w3.org/2000/svg"
   xmlns="http://www.w3.org/2000/svg"
   xmlns:sodipodi="http://sodipodi.sourceforge.net/DTD/sodipodi-0.dtd"
   xmlns:inkscape="http://www.inkscape.org/namespaces/inkscape"
   class="rotate"
   width="53.327"
   height="53.327"
   version="1.1"
   id="svg14"
   sodipodi:docname="redGEAR.svg"
   inkscape:version="0.92.0 r15299">
  <metadata
     id="metadata20">
    <rdf:RDF>
      <cc:Work
         rdf:about="">
        <dc:format>image/svg+xml</dc:format>
        <dc:type
           rdf:resource="http://purl.org/dc/dcmitype/StillImage" />
        <dc:title></dc:title>
      </cc:Work>
    </rdf:RDF>
  </metadata>
  <defs
     id="defs18" />
  <sodipodi:namedview
     pagecolor="#ffffff"
     bordercolor="#666666"
     borderopacity="1"
     objecttolerance="10"
     gridtolerance="10"
     guidetolerance="10"
     inkscape:pageopacity="0"
     inkscape:pageshadow="2"
     inkscape:window-width="1920"
     inkscape:window-height="1027"
     id="namedview16"
     showgrid="false"
     inkscape:zoom="15.864384"
     inkscape:cx="15.97919"
     inkscape:cy="26.6635"
     inkscape:window-x="-8"
     inkscape:window-y="-8"
     inkscape:window-maximized="1"
     inkscape:current-layer="svg14" />
  <path
     d="M21.868 49.443l-.644-3.884-.537-.171a19.388 19.388 0 01-2.956-1.213l-.62-.31-3.21 2.248a338.33 338.33 0 01-3.23 2.247c-.012 0-1.321-1.301-2.91-2.892l-2.89-2.891 2.284-3.193 2.283-3.193-.253-.484a20.752 20.752 0 01-1.317-3.182l-.142-.452-3.854-.683-3.855-.683-.009-4.099L0 22.51l3.792-.63c2.085-.347 3.827-.64 3.871-.651.07-.018.102-.09.256-.57a19.837 19.837 0 011.27-3.053c.138-.264.243-.5.234-.525-.01-.024-1.016-1.473-2.237-3.218a297.304 297.304 0 01-2.22-3.196c0-.013 1.302-1.323 2.893-2.912l2.891-2.889 3.198 2.286 3.197 2.287.547-.275a18.846 18.846 0 012.923-1.204c.33-.104.61-.21.624-.236C21.259 7.685 22.5.1 22.5.018c0-.014 1.848-.021 4.106-.017l4.106.009.64 3.65.68 3.886.04.236.505.162c1.143.365 2.645 1.007 3.442 1.47l.135.078 3.215-2.314 3.215-2.313 2.891 2.889c1.59 1.589 2.892 2.9 2.892 2.912 0 .012-1.014 1.467-2.254 3.233a396.093 396.093 0 00-2.27 3.252c-.009.022.092.247.224.499.468.895.96 2.08 1.278 3.082.145.456.162.49.247.508a1562.2 1562.2 0 007.704 1.253c.028 0 .036 1.072.03 4.107l-.009 4.108-3.9.684-3.9.685-.236.7c-.39 1.158-.762 2.045-1.217 2.907-.22.416-.233.45-.187.519.027.04 1.07 1.491 2.32 3.224l2.27 3.15-2.892 2.891c-1.59 1.59-2.9 2.892-2.913 2.892-.012 0-1.463-1.012-3.224-2.248a1827.542 1827.542 0 00-3.235-2.267c-.017-.011-.261.1-.542.246-.981.511-2.07.966-3.068 1.282-.415.131-.494.167-.51.23-.01.04-.322 1.791-.694 3.89l-.677 3.817-4.1.008-4.1.009zm5.504-15.35a7.544 7.544 0 003.942-1.592c.304-.24.955-.89 1.194-1.194a7.884 7.884 0 001.045-1.767c1.05-2.507.653-5.373-1.045-7.528-.24-.303-.89-.954-1.195-1.194a7.464 7.464 0 00-9.292 0c-.305.24-.956.89-1.196 1.196a7.464 7.464 0 000 9.292c.24.305.89.955 1.195 1.195 1.525 1.202 3.463 1.779 5.352 1.591z"
     id="path10"
     style="fill:#e91c00;fill-opacity:1" />
  <style
     type="text/css"
     id="style12">
    .rotate {
  animation: rotation 8s infinite linear;
}

@keyframes rotation {
  from {
    transform: rotate(0deg);
  }
  to {
    transform: rotate(359deg);
  }
}
</style>
</svg>
